<svg xmlns="http://www.w3.org/2000/svg" width="200" height="200" viewBox="0 0 200 200" fill="none">
  <g clip-path="url(#clip0_572_4304)">
    <path d="M99.9982 199.996C155.226 199.996 199.996 155.226 199.996 99.9982C199.996 44.7707 155.226 0 99.9982 0C44.7707 0 0 44.7707 0 99.9982C0 155.226 44.7707 199.996 99.9982 199.996Z" fill="#3D649B"/>
    <path d="M197.168 76.3549C199.015 83.9288 200 91.8722 200 100C200 155.234 155.234 200 100.001 200C98.1533 200 96.3673 199.938 94.5818 199.877L95.0747 174.384L35.4684 114.778L77.2786 111.638L31.6504 66.01L89.163 61.6994L97.1064 69.6428L97.3525 56.2807L94.1505 50.7389L97.4759 49.692L97.9068 26.4158L115.456 43.9654L152.895 32.081L197.168 76.3549Z" fill="#253569"/>
    <path d="M90.4551 26.3547H97.9676V199.939C95.443 199.877 92.9184 199.754 90.4551 199.508V26.3547Z" fill="#D1D5DC"/>
    <path d="M94.2109 26.3547H97.9672V199.939C96.7359 199.939 95.4426 199.877 94.2109 199.816V26.3547Z" fill="#D1D5DC"/>
    <path d="M91.1336 30.2957H97.4762C98.4613 30.2957 99.2621 31.096 99.2621 32.0816V48.9535C99.2621 49.9387 98.4617 50.7394 97.4762 50.7394H91.1336C90.1484 50.7394 89.3477 49.9391 89.3477 48.9535V32.0812C89.348 31.096 90.1484 30.2957 91.1336 30.2957Z" fill="#0E0637"/>
    <path d="M94.2109 30.2957H97.4742C98.4594 30.2957 99.2602 31.096 99.2602 32.0816V48.9535C99.2602 49.9387 98.4598 50.7394 97.4742 50.7394H94.2109V30.357V30.2957Z" fill="#D1D5DC"/>
    <path d="M99.2617 32.0813H152.956L160.592 40.702L152.956 48.9532H99.2617V32.0813Z" fill="#0E0637"/>
    <path d="M91.1336 74.9385H97.4762C98.4613 74.9385 99.2621 75.7389 99.2621 76.7244V93.5963C99.2621 94.5815 98.4617 95.3823 97.4762 95.3823H91.1336C90.1484 95.3823 89.3477 94.5819 89.3477 93.5963V76.7244C89.348 75.7393 90.1484 74.9385 91.1336 74.9385Z" fill="#D1D5DC"/>
    <path d="M94.2109 74.9385H97.4742C98.4594 74.9385 99.2602 75.7389 99.2602 76.7244V93.5963C99.2602 94.5815 98.4598 95.3823 97.4742 95.3823H94.2109V75.0002V74.9385Z" fill="#D1D5DC"/>
    <path d="M99.2617 76.7244H152.956L160.592 85.3451L152.956 93.5963H99.2617V76.7244Z" fill="#D1D5DC"/>
    <path d="M91.1336 118.658H97.4762C98.4613 118.658 99.2621 119.458 99.2621 120.444V137.316C99.2621 138.301 98.4617 139.102 97.4762 139.102H91.1336C90.1484 139.102 89.3477 138.301 89.3477 137.316V120.444C89.348 119.458 90.1484 118.658 91.1336 118.658Z" fill="#6BC1FF"/>
    <path d="M94.2109 118.658H97.4742C98.4594 118.658 99.2602 119.458 99.2602 120.444V137.316C99.2602 138.301 98.4598 139.102 97.4742 139.102H94.2109V118.72V118.658Z" fill="#00C583"/>
    <path d="M99.2617 120.382H168.166L175.801 129.003L168.166 137.254H99.2617V120.382Z" fill="#6BC1FF"/>
    <path d="M97.2301 51.4778H90.8875C89.9023 51.4778 89.1016 52.2782 89.1016 53.2637V70.1356C89.1016 71.1208 89.902 71.9216 90.8875 71.9216H97.2301C98.2152 71.9216 99.016 71.1212 99.016 70.1356V53.2637C99.0153 52.2782 98.2152 51.4778 97.2301 51.4778Z" fill="#6BC1FF"/>
    <path d="M94.2113 51.4778H90.9481C89.9629 51.4778 89.1621 52.2782 89.1621 53.2637V70.1356C89.1621 71.1208 89.9625 71.9216 90.9481 71.9216H94.2113V51.5399V51.4778Z" fill="#97BDC7"/>
    <path d="M89.1622 53.2634H35.4676L27.832 61.8841L35.4676 70.1353H89.1622V53.2634Z" fill="#6BC1FF"/>
    <path d="M97.2301 96.1206H90.8875C89.9023 96.1206 89.1016 96.921 89.1016 97.9065V114.778C89.1016 115.764 89.902 116.564 90.8875 116.564H97.2301C98.2152 116.564 99.016 115.764 99.016 114.778V97.9065C99.0153 96.9214 98.2152 96.1206 97.2301 96.1206Z" fill="#D1D5DC"/>
    <path d="M94.2113 96.1206H90.9481C89.9629 96.1206 89.1621 96.921 89.1621 97.9065V114.778C89.1621 115.764 89.9625 116.564 90.9481 116.564H94.2113V96.1823V96.1206Z" fill="#0E0637"/>
    <path d="M89.1622 97.9065H35.4676L27.832 106.527L35.4676 114.778H89.1622V97.9065Z" fill="#0E0637"/>
    <path d="M105.541 44.1505V36.5766H111.145V37.8696H107.08V39.5321H110.898V40.8251H107.08V42.8571H111.329V44.1501C111.329 44.1505 105.541 44.1505 105.541 44.1505ZM113.3 36.5766H114.839V40.702C114.839 41.3794 114.839 41.7489 114.901 41.995C114.963 42.3028 115.147 42.5493 115.394 42.734C115.64 42.9188 115.948 43.0419 116.379 43.0419C116.81 43.0419 117.118 42.9801 117.364 42.7958C117.61 42.611 117.733 42.4266 117.733 42.1184C117.795 41.8723 117.795 41.4411 117.795 40.8254V36.6379H119.334V40.6403C119.334 41.5641 119.273 42.1797 119.211 42.5493C119.15 42.9184 118.965 43.2266 118.78 43.5344C118.534 43.7805 118.288 44.0274 117.918 44.1505C117.549 44.3352 117.056 44.3965 116.44 44.3965C115.701 44.3965 115.147 44.3348 114.778 44.1505C114.409 43.9657 114.1 43.7813 113.916 43.4731C113.67 43.227 113.546 42.9188 113.485 42.611C113.362 42.1801 113.362 41.5641 113.362 40.702V36.6379L113.3 36.5766ZM121.674 44.1505V36.5766H124.876C125.676 36.5766 126.292 36.6383 126.662 36.7614C127.031 36.8844 127.339 37.1305 127.524 37.5004C127.77 37.8696 127.832 38.2395 127.832 38.6704C127.832 39.2247 127.647 39.7172 127.339 40.0864C127.031 40.4555 126.477 40.7024 125.861 40.7637C126.168 40.9485 126.477 41.1946 126.661 41.3797C126.846 41.6258 127.154 41.9958 127.523 42.611L128.447 44.0891H126.6L125.491 42.4266C125.122 41.8106 124.814 41.4415 124.691 41.3184C124.568 41.1954 124.383 41.0723 124.198 41.0106C124.013 40.9489 123.767 40.9489 123.398 40.9489H123.09V44.1508H121.55H121.673L121.674 44.1505ZM123.213 39.7782H124.322C125.061 39.7782 125.491 39.7165 125.676 39.6551C125.861 39.5938 125.984 39.4704 126.107 39.3473C126.23 39.2243 126.23 38.9782 126.23 38.793C126.23 38.5469 126.168 38.3622 126.045 38.177C125.922 37.9922 125.738 37.9309 125.491 37.8692C125.368 37.8692 124.998 37.8692 124.383 37.8692H123.213L123.213 39.7782ZM129.741 40.3942C129.741 39.5938 129.864 38.9782 130.11 38.4239C130.295 38.0547 130.541 37.6848 130.787 37.377C131.095 37.0692 131.403 36.8227 131.772 36.6997C132.265 36.5149 132.819 36.3918 133.435 36.3918C134.543 36.3918 135.467 36.761 136.144 37.4387C136.822 38.1161 137.129 39.1012 137.129 40.3329C137.129 41.5641 136.822 42.5497 136.144 43.227C135.467 43.9044 134.605 44.2739 133.496 44.2739C132.388 44.2739 131.464 43.9048 130.787 43.227C130.109 42.5493 129.802 41.5645 129.802 40.3946L129.741 40.3942ZM131.342 40.3329C131.342 41.195 131.527 41.8723 131.958 42.3032C132.327 42.734 132.882 42.9805 133.497 42.9805C134.113 42.9805 134.606 42.7344 135.037 42.3032C135.406 41.8723 135.653 41.195 135.653 40.3329C135.653 39.4708 135.468 38.7934 135.098 38.3626C134.729 37.9317 134.236 37.7465 133.559 37.7465C132.943 37.7465 132.389 37.9926 132.02 38.4239C131.65 38.8547 131.465 39.5321 131.465 40.3942L131.342 40.3329ZM139.039 44.1505V36.5766H141.502C142.426 36.5766 143.041 36.6383 143.349 36.6997C143.78 36.8227 144.15 37.0688 144.457 37.4387C144.765 37.8079 144.888 38.3008 144.888 38.9168C144.888 39.4098 144.827 39.779 144.642 40.0868C144.457 40.3946 144.273 40.6411 144.026 40.8258C143.78 41.0106 143.472 41.1337 143.226 41.195C142.857 41.2567 142.302 41.318 141.625 41.318H140.64V44.2122H139.1L139.039 44.1505ZM140.578 37.8079V39.9629H141.44C142.056 39.9629 142.425 39.9012 142.671 39.8399C142.856 39.7782 143.04 39.6551 143.164 39.4708C143.287 39.286 143.349 39.1016 143.349 38.8547C143.349 38.5469 143.287 38.3618 143.103 38.1774C142.918 37.9926 142.734 37.8696 142.487 37.8083C142.302 37.7465 141.932 37.7465 141.379 37.7465H140.64L140.578 37.8079ZM146.859 44.1505V36.5766H152.462V37.8696H148.398V39.5321H152.216V40.8251H148.398V42.8571H152.647V44.1501C152.647 44.1505 146.859 44.1505 146.859 44.1505Z" fill="#3D649B"/>
    <path d="M41.502 66.1333H39.8395L39.1621 64.4091H36.1449L35.5289 66.1333H33.9277L36.8832 58.5595H38.4844L41.502 66.1333ZM38.6695 63.1161L37.6227 60.2837L36.5758 63.1161H38.6695ZM42.9797 66.1333V58.5595H45.2578L46.6125 63.7317L47.9672 58.5595H50.3071V66.1333H48.891V60.1606L47.4129 66.1333H45.9348L44.4567 60.1606V66.1333H43.0406H42.9797ZM52.5243 66.1333V58.5595H58.1278V59.8524H54.0637V61.5149H57.8813V62.8079H54.0637V64.84H58.3122V66.1329L52.5243 66.1333ZM60.2829 66.1333V58.5595H63.4848C64.2852 58.5595 64.9008 58.6212 65.2708 58.7442C65.6403 58.8673 65.9481 59.1134 66.1329 59.4833C66.379 59.8524 66.4407 60.2224 66.4407 60.6532C66.4407 61.2075 66.2559 61.7001 65.9477 62.0692C65.6395 62.4384 65.0856 62.6853 64.4696 62.7466C64.7774 62.9314 65.0856 63.1774 65.27 63.3626C65.4547 63.6087 65.763 63.9786 66.1321 64.5939L67.0559 66.072H65.2087L64.1005 64.4095C63.7313 63.7935 63.4231 63.4243 63.3001 63.3013C63.177 63.1782 62.9922 63.0552 62.8071 62.9935C62.6223 62.9317 62.3762 62.9317 62.0067 62.9317H61.6989V66.1337H60.1594H60.2821V66.1333H60.2829ZM61.8223 61.761H62.9305C63.6696 61.761 64.1004 61.6993 64.2852 61.638C64.47 61.5763 64.593 61.4532 64.7161 61.3302C64.8391 61.2071 64.9008 60.961 64.9008 60.7759C64.9008 60.5298 64.8391 60.345 64.7161 60.1599C64.593 59.9751 64.4083 59.9138 64.1618 59.852C64.0387 59.852 63.6688 59.852 63.0536 59.852H61.8836V61.761H61.8223ZM68.5954 66.1333V58.5595H70.1348V66.1333H68.5954ZM77.1548 63.3005L78.6329 63.7314C78.3868 64.5935 78.0169 65.2095 77.5247 65.5786C76.9704 66.0095 76.2934 66.1946 75.4927 66.1946C74.5075 66.1946 73.6454 65.8255 73.0294 65.1478C72.352 64.4704 72.0442 63.4853 72.0442 62.3153C72.0442 61.0224 72.352 60.0985 73.0294 59.3599C73.7067 58.6825 74.5688 58.313 75.6157 58.313C76.5395 58.313 77.2782 58.5591 77.8938 59.1134C78.263 59.4212 78.5099 59.9138 78.6942 60.5294L77.1548 60.8985C77.0931 60.5294 76.9087 60.2212 76.6005 59.9747C76.2927 59.7286 75.9845 59.6056 75.5536 59.6056C74.9993 59.6056 74.5067 59.7903 74.1989 60.2216C73.8298 60.6524 73.6446 61.2685 73.6446 62.1919C73.6446 63.1771 73.8294 63.8544 74.1376 64.2239C74.5067 64.6548 74.938 64.84 75.4923 64.84C75.9231 64.84 76.2313 64.7169 76.5391 64.4708C76.847 64.2247 77.0321 63.7935 77.1552 63.2396V63.3009H77.1548V63.3005ZM87.4997 66.1333H85.8372L85.1599 64.4091H82.081L81.4649 66.1333H79.8638L82.8192 58.5595H84.4204L87.4376 66.1333H87.4997ZM84.6669 63.1161L83.62 60.2837L82.5731 63.1161H84.6669Z" fill="#3D649B"/>
    <path d="M120.258 88.9166H118.595L117.918 87.1923H114.901L114.285 88.9166H112.684L115.639 81.3427H117.24L120.258 88.9166ZM117.425 85.8994L116.379 83.0669L115.332 85.8994H117.425ZM121.366 86.4533L122.844 86.3302C122.906 86.8232 123.09 87.1923 123.398 87.4384C123.645 87.6845 124.014 87.8076 124.507 87.8076C124.999 87.8076 125.369 87.6845 125.615 87.4998C125.861 87.315 125.984 87.0689 125.984 86.7607C125.984 86.5759 125.922 86.4529 125.799 86.3298C125.676 86.2068 125.491 86.0838 125.245 86.022C125.06 85.9603 124.629 85.8373 124.014 85.7142C123.213 85.5295 122.598 85.2834 122.289 84.9752C121.797 84.5443 121.612 84.0513 121.612 83.4357C121.612 83.0666 121.735 82.6966 121.92 82.3275C122.166 81.9584 122.474 81.7115 122.844 81.5271C123.275 81.3423 123.768 81.281 124.322 81.281C125.246 81.281 125.984 81.4658 126.477 81.897C126.97 82.3279 127.216 82.8822 127.216 83.5595L125.677 83.6212C125.615 83.2521 125.492 82.9439 125.246 82.7591C125.061 82.5744 124.691 82.513 124.261 82.513C123.83 82.513 123.46 82.5748 123.214 82.7591C123.029 82.8822 122.968 83.0052 122.968 83.2521C122.968 83.4369 123.029 83.5599 123.214 83.7451C123.398 83.9298 123.891 84.0529 124.63 84.238C125.369 84.4228 125.923 84.6072 126.292 84.7923C126.661 84.9771 126.908 85.2232 127.154 85.5927C127.339 85.9006 127.462 86.3318 127.462 86.824C127.462 87.2548 127.339 87.6861 127.093 88.0552C126.847 88.4244 126.477 88.7326 126.046 88.9174C125.615 89.1021 125.061 89.1634 124.384 89.1634C123.398 89.1634 122.659 88.9174 122.167 88.4861C121.674 88.0552 121.366 87.3779 121.243 86.5771L121.366 86.4533ZM129.495 88.9166V81.3427H131.034V88.9166H129.495ZM140.024 88.9166H138.361L137.684 87.1923H134.605L133.989 88.9166H132.388L135.343 81.3427H136.945L139.962 88.9166H140.024ZM137.191 85.8994L136.145 83.0669L135.098 85.8994H137.191Z" fill="#3D649B"/>
    <path d="M49.261 110.099H47.5984L46.9211 108.374H43.8422L43.2262 110.099H41.625L44.5805 102.525H46.1817L49.1988 110.099H49.261ZM46.4285 107.082L45.3816 104.249L44.3348 107.082H46.4285ZM50.7391 110.099V102.525H55.9731V103.818H52.2785V105.604H55.4805V106.897H52.2785V110.099H50.7391ZM57.9434 110.099V102.525H61.1454C61.9457 102.525 62.5614 102.587 62.9313 102.71C63.3004 102.833 63.6086 103.079 63.7934 103.449C64.0395 103.818 64.1012 104.188 64.1012 104.619C64.1012 105.173 63.9165 105.665 63.6082 106.035C63.3004 106.404 62.7461 106.651 62.1301 106.712C62.4379 106.897 62.7461 107.143 62.9305 107.328C63.1766 107.574 63.4235 107.944 63.7926 108.559L64.7165 110.037H62.8692L61.761 108.375C61.3918 107.759 61.0836 107.39 60.9606 107.267C60.8375 107.144 60.6528 107.021 60.4676 106.959C60.2825 106.897 60.0368 106.897 59.6672 106.897H59.3594V110.099H57.82L57.9434 110.099ZM59.4828 105.727H60.5911C61.3301 105.727 61.761 105.665 61.9457 105.604C62.1305 105.542 62.2536 105.419 62.3766 105.296C62.4997 105.173 62.5614 104.927 62.5614 104.742C62.5614 104.496 62.4997 104.249 62.3766 104.126C62.2536 103.941 62.0688 103.88 61.8223 103.818C61.6993 103.818 61.3293 103.818 60.7141 103.818H59.5442V105.727H59.4828ZM66.2563 110.099V102.525H67.7958V110.099H66.2563ZM74.8153 107.328L76.2934 107.758C76.0473 108.621 75.6774 109.237 75.1852 109.606C74.6309 110.037 73.954 110.222 73.1532 110.222C72.168 110.222 71.3059 109.853 70.6899 109.175C70.0126 108.498 69.7047 107.512 69.7047 106.342C69.7047 105.049 70.0126 104.126 70.6899 103.387C71.3672 102.71 72.2294 102.34 73.2762 102.34C74.2001 102.34 74.9387 102.586 75.5544 103.14C75.9235 103.448 76.1704 103.941 76.3548 104.557L74.8153 104.926C74.7536 104.557 74.5692 104.248 74.261 104.002C73.9532 103.755 73.645 103.633 73.2141 103.633C72.6598 103.633 72.1673 103.817 71.8594 104.249C71.4903 104.68 71.3051 105.296 71.3051 106.219C71.3051 107.204 71.4899 107.882 71.7981 108.251C72.1672 108.682 72.5985 108.867 73.1528 108.867C73.5837 108.867 73.8919 108.744 74.1997 108.498C74.5075 108.252 74.6926 107.821 74.8157 107.267V107.328H74.8153V107.328ZM85.1602 110.099H83.4977L82.8204 108.374H79.7415L79.1255 110.099H77.5243L80.4798 102.525H82.0809L85.0981 110.099H85.1602ZM82.3278 107.082L81.2809 104.249L80.2341 107.082H82.3278Z" fill="#3D649B"/>
    <path d="M109.297 132.636H107.634L106.957 130.912H103.94L103.324 132.636H101.723L104.678 125.062H106.279L109.297 132.636ZM106.464 129.619L105.417 126.786L104.37 129.619H106.464ZM110.836 125.062H112.376V129.187C112.376 129.865 112.376 130.234 112.438 130.48C112.499 130.788 112.684 131.035 112.93 131.219C113.177 131.404 113.485 131.527 113.916 131.527C114.347 131.527 114.655 131.465 114.901 131.281C115.147 131.097 115.27 130.912 115.27 130.604C115.332 130.358 115.332 129.926 115.332 129.311V125.124H116.871V129.126C116.871 130.05 116.809 130.665 116.748 131.035C116.687 131.405 116.502 131.712 116.317 132.02C116.071 132.266 115.824 132.513 115.455 132.636C115.086 132.759 114.593 132.882 113.977 132.882C113.238 132.882 112.684 132.821 112.314 132.636C111.945 132.451 111.637 132.267 111.452 131.959C111.206 131.713 111.083 131.405 111.022 131.097C110.898 130.666 110.898 129.989 110.898 129.188V125.124L110.836 125.062ZM118.779 130.173L120.257 130.049C120.319 130.542 120.504 130.912 120.812 131.158C121.058 131.404 121.428 131.527 121.92 131.527C122.413 131.527 122.782 131.404 123.028 131.219C123.274 131.034 123.397 130.788 123.397 130.48C123.397 130.295 123.336 130.172 123.213 130.049C123.09 129.926 122.905 129.803 122.658 129.741C122.473 129.68 122.104 129.557 121.427 129.433C120.627 129.249 120.011 129.003 119.703 128.694C119.21 128.264 119.025 127.771 119.025 127.155C119.025 126.786 119.148 126.416 119.333 126.047C119.579 125.739 119.888 125.431 120.257 125.246C120.688 125.062 121.181 125 121.735 125C122.659 125 123.398 125.185 123.89 125.616C124.383 126.047 124.629 126.601 124.629 127.279L123.09 127.34C123.028 126.971 122.905 126.663 122.659 126.478C122.474 126.294 122.105 126.232 121.674 126.232C121.243 126.232 120.873 126.355 120.627 126.478C120.442 126.601 120.381 126.724 120.381 126.971C120.381 127.156 120.443 127.279 120.627 127.464C120.812 127.649 121.304 127.772 122.043 127.957C122.782 128.142 123.336 128.326 123.706 128.512C124.075 128.697 124.322 128.942 124.568 129.312C124.752 129.62 124.875 130.051 124.875 130.543C124.875 130.974 124.752 131.405 124.506 131.774C124.26 132.144 123.952 132.452 123.459 132.637C123.029 132.821 122.474 132.944 121.797 132.944C120.812 132.944 120.073 132.698 119.58 132.267C119.087 131.836 118.78 131.159 118.656 130.358L118.779 130.173ZM128.693 132.636V126.293H126.415V125H132.45V126.293H130.233V132.636H128.693ZM134.174 132.636V125.062H137.376C138.176 125.062 138.792 125.124 139.162 125.247C139.531 125.37 139.839 125.616 140.024 125.986C140.27 126.355 140.332 126.725 140.332 127.156C140.332 127.71 140.147 128.203 139.839 128.572C139.531 128.941 138.977 129.188 138.361 129.249C138.668 129.434 138.977 129.68 139.161 129.865C139.407 130.111 139.654 130.481 140.023 131.096L140.947 132.574H139.1L137.991 130.912C137.622 130.296 137.314 129.927 137.191 129.804C137.068 129.681 136.883 129.558 136.698 129.496C136.513 129.434 136.267 129.434 135.898 129.434H135.59V132.636H134.05L134.174 132.636ZM135.713 128.264H136.821C137.56 128.264 137.991 128.202 138.176 128.14C138.361 128.079 138.484 127.956 138.607 127.833C138.73 127.71 138.791 127.464 138.791 127.278C138.791 127.032 138.73 126.848 138.607 126.662C138.484 126.478 138.299 126.416 138.052 126.355C137.929 126.355 137.559 126.355 136.944 126.355H135.774V128.264H135.713ZM149.383 132.636H147.721L147.043 130.912H144.026L143.41 132.636H141.809L144.765 125.062H146.366L149.383 132.636ZM146.551 129.619L145.504 126.786L144.457 129.619H146.551ZM150.922 132.636V125.123H152.462V131.343H156.279V132.636H150.922ZM158.004 132.636V125.062H159.543V132.636H158.004ZM168.533 132.636H166.871L166.193 130.912H163.176L162.56 132.636H160.959L163.915 125.062H165.516L168.533 132.636ZM165.701 129.619L164.654 126.786L163.607 129.619H165.701Z" fill="#3D649B"/>
  </g>
  <defs>
    <clipPath id="clip0_572_4304">
      <rect width="200" height="200" fill="white"/>
    </clipPath>
  </defs>
</svg>