<svg xmlns="http://www.w3.org/2000/svg" width="200" height="200" viewBox="0 0 200 200" fill="none">
  <g clip-path="url(#clip0_572_4334)">
    <path d="M100 200C155.228 200 200 155.228 200 100C200 44.7715 155.228 0 100 0C44.7715 0 0 44.7715 0 100C0 155.228 44.7715 200 100 200Z" fill="#6BC1FF"/>
    <path d="M199.873 104.951L171.127 76.2047L163.857 83.4749L132.202 51.8196L40.4004 143.62L96.7183 199.938C97.8096 199.974 98.9014 199.997 100.001 199.997C153.569 199.997 197.296 157.878 199.876 104.952L199.873 104.951Z" fill="#5492CD"/>
    <path d="M171.129 76.2029L89.8359 52.2996L65.9326 133.593L147.226 157.496L171.129 76.2029Z" fill="#F9F9F9"/>
    <path d="M171.126 76.2046L147.225 157.498L65.9316 133.596L171.126 76.2046Z" fill="#E6E6E6"/>
    <path d="M162.518 82.1771L93.8477 61.9856L78.4074 114.497L147.077 134.688L162.518 82.1771Z" fill="#87AAFF"/>
    <path d="M123.629 106.737C123.659 106.791 123.69 106.85 123.721 106.913C124.266 107.996 125.165 110.415 124.572 113.813C123.752 118.526 121.129 120.398 121.129 120.398C121.868 121.019 122.586 121.335 123.274 121.274C123.274 121.274 125.64 118.768 125.864 113.583C126.042 109.445 124.686 107.153 124.131 106.398C124.138 106.381 124.144 106.366 124.148 106.348C124.232 106.061 124.068 105.757 123.78 105.673C123.492 105.589 123.19 105.753 123.105 106.041C123.021 106.329 123.186 106.631 123.473 106.716C123.525 106.73 123.577 106.737 123.629 106.737Z" fill="#663333"/>
    <path d="M123.503 105.924C123.503 105.924 119.3 103.185 117.943 104.76C116.586 106.336 115.705 107.676 115.705 107.676L117.393 106.418L117.235 107.06L118.889 106.072L118.727 106.464L120.571 105.736L120.396 106.17L123.476 106.253L123.502 105.925L123.503 105.924Z" fill="#38C20E"/>
    <path d="M123.776 105.872C123.776 105.872 128.434 104.405 129.394 105.174C130.353 105.942 131.311 108.028 131.311 108.028L129.77 106.746L129.86 107.353L128.324 106.324L128.444 106.698L126.693 105.898L126.821 106.313L123.766 106.178L123.774 105.872L123.776 105.872Z" fill="#38C20E"/>
    <path d="M123.643 106.142C123.643 106.142 126.873 106.149 128.219 107.94C129.564 109.73 129.438 111.367 129.438 111.367C128.862 110.684 128.611 109.869 127.713 109.318L127.647 110.129L126.545 108.321L126.384 108.829L125.397 107.628L125.262 108.115L124.025 106.857C124.025 106.857 123.306 106.316 123.642 106.141H123.643L123.643 106.142Z" fill="#38C20E"/>
    <path d="M123.395 106.095C123.395 106.095 120.166 106.015 118.772 107.768C117.38 109.522 117.462 111.161 117.462 111.161C118.056 110.494 118.329 109.686 119.242 109.161L119.285 109.975L120.434 108.196L120.582 108.711L121.6 107.536L121.722 108.027L122.991 106.802C122.992 106.801 123.725 106.279 123.395 106.095Z" fill="#38C20E"/>
    <path d="M123.6 105.65C123.6 105.65 122.786 102.045 122.195 101.871C121.604 101.697 118.874 103.198 118.874 103.198L118.172 104.043L119.964 103.488L119.809 104.022L121.472 103.538L121.326 103.982C121.326 103.982 121.933 103.893 122.392 104.514C122.851 105.135 123.506 105.923 123.506 105.923L123.742 105.852L123.602 105.649H123.6V105.65H123.6Z" fill="#38C20E"/>
    <path d="M125.418 102.482C124.847 102.794 123.909 105.015 123.621 105.889C123.533 106.159 123.743 105.993 123.743 105.993C123.743 105.993 124.477 104.73 124.931 104.784C125.384 104.838 125.542 105.261 125.542 105.261L125.476 104.355C126.219 104.449 126.83 104.849 126.809 104.787L126.582 104.124L127.977 104.815C127.861 104.029 126.077 102.121 125.418 102.481V102.482Z" fill="#38C20E"/>
    <path d="M123.654 106.719C123.993 106.719 124.269 106.443 124.269 106.104C124.269 105.764 123.993 105.489 123.654 105.489C123.314 105.489 123.039 105.764 123.039 106.104C123.039 106.443 123.314 106.719 123.654 106.719Z" fill="#27A600"/>
    <path d="M123.248 107.007C122.948 106.985 122.686 107.245 122.661 107.588C122.636 107.93 122.859 108.225 123.158 108.247C123.457 108.269 123.719 108.009 123.744 107.666C123.769 107.324 123.547 107.028 123.248 107.007Z" fill="#D7680F"/>
    <path d="M123.08 107.768C123.219 107.768 123.332 107.639 123.332 107.48C123.332 107.32 123.219 107.191 123.08 107.191C122.941 107.191 122.828 107.32 122.828 107.48C122.828 107.639 122.941 107.768 123.08 107.768Z" fill="#E59C0B"/>
    <path d="M123.976 106.347C123.677 106.326 123.414 106.586 123.39 106.928C123.365 107.271 123.587 107.566 123.886 107.588C124.185 107.61 124.448 107.349 124.473 107.007C124.498 106.664 124.275 106.369 123.976 106.347Z" fill="#D7680F"/>
    <path d="M123.807 107.103C123.946 107.103 124.059 106.974 124.059 106.815C124.059 106.656 123.946 106.527 123.807 106.527C123.667 106.527 123.555 106.656 123.555 106.815C123.555 106.974 123.667 107.103 123.807 107.103Z" fill="#E59C0B"/>
    <path d="M123.182 106.103C122.923 105.951 122.573 106.068 122.399 106.364C122.225 106.66 122.293 107.023 122.552 107.175C122.81 107.327 123.161 107.21 123.335 106.914C123.509 106.618 123.44 106.255 123.182 106.103Z" fill="#D7680F"/>
    <path d="M122.972 106.203C122.852 106.132 122.689 106.187 122.608 106.324C122.527 106.462 122.559 106.631 122.679 106.701C122.799 106.772 122.962 106.718 123.043 106.58C123.124 106.443 123.092 106.274 122.972 106.203Z" fill="#E59C0B"/>
    <path d="M119.469 116.885C131.097 120.304 139.745 126.966 140.96 132.889L92.7344 118.71C96.9617 114.387 107.839 113.467 119.469 116.885Z" fill="#FAC014"/>
    <path d="M133.053 91.6129C133.122 91.7407 133.194 91.8782 133.268 92.0258C134.548 94.5672 136.654 100.236 135.264 108.207C133.34 119.256 127.189 123.645 127.189 123.645C128.922 125.102 130.603 125.843 132.219 125.697C132.219 125.697 137.765 119.823 138.29 107.665C138.709 97.9601 135.528 92.5875 134.226 90.8133C134.242 90.7754 134.256 90.7376 134.267 90.6969C134.465 90.0212 134.079 89.3134 133.403 89.1149C132.727 88.9157 132.019 89.3016 131.819 89.9774C131.621 90.6532 132.008 91.3625 132.684 91.561C132.806 91.5973 132.929 91.6145 133.05 91.6129H133.053H133.053Z" fill="#663333"/>
    <path d="M132.76 89.708C132.76 89.708 122.905 83.2819 119.724 86.9768C116.542 90.6716 114.479 93.8141 114.479 93.8141L118.435 90.8611L118.066 92.37L121.944 90.0548L121.565 90.9736L125.889 89.2666L125.479 90.2849L132.701 90.4775L132.762 89.706L132.76 89.708Z" fill="#38C20E"/>
    <path d="M133.395 89.5829C133.395 89.5829 144.319 86.1423 146.57 87.9462C148.819 89.7485 151.064 94.6402 151.064 94.6402L147.451 91.6325L147.663 93.0555L144.06 90.6446L144.343 91.5211L140.238 89.6442L140.54 90.6165L133.375 90.3004L133.393 89.5825L133.395 89.5829Z" fill="#38C20E"/>
    <path d="M133.086 90.2181C133.086 90.2181 140.661 90.2349 143.816 94.4325C146.971 98.6301 146.675 102.465 146.675 102.465C145.327 100.864 144.735 98.9543 142.629 97.6649L142.476 99.5656L139.894 95.3247L139.516 96.5188L137.201 93.7036L136.884 94.8458L133.984 91.8927C133.984 91.8927 132.298 90.6244 133.084 90.2166L133.086 90.2181Z" fill="#38C20E"/>
    <path d="M132.504 90.1099C132.504 90.1099 124.932 89.9232 121.666 94.0349C118.398 98.1469 118.592 101.989 118.592 101.989C119.983 100.425 120.626 98.5317 122.764 97.2981L122.865 99.2032L125.561 95.0337L125.906 96.2376L128.295 93.4853L128.581 94.6356L131.558 91.7626C131.558 91.7626 133.278 90.5404 132.502 90.1103L132.504 90.1099Z" fill="#38C20E"/>
    <path d="M132.987 89.0661C132.987 89.0661 131.079 80.6116 129.692 80.203C128.306 79.7956 121.904 83.3162 121.904 83.3162L120.256 85.2943L124.46 83.9951L124.093 85.2467L127.991 84.1143L127.649 85.1537C127.649 85.1537 129.07 84.9459 130.149 86.4025C131.228 87.8595 132.762 89.7079 132.762 89.7079L133.316 89.5396L132.987 89.0677L132.987 89.0661Z" fill="#38C20E"/>
    <path d="M137.251 81.6369C135.915 82.3662 133.712 87.5751 133.038 89.6219C132.829 90.2555 133.322 89.8664 133.322 89.8664C133.322 89.8664 135.041 86.9036 136.106 87.0341C137.171 87.1634 137.54 88.1536 137.54 88.1536L137.389 86.0282C139.132 86.2517 140.564 87.1872 140.513 87.0438L139.977 85.4884L143.249 87.1126C142.983 85.2646 138.797 80.7928 137.251 81.6369Z" fill="#38C20E"/>
    <path d="M133.105 91.5736C133.9 91.5736 134.545 90.9286 134.545 90.133C134.545 89.3374 133.9 88.6924 133.105 88.6924C132.309 88.6924 131.664 89.3374 131.664 90.133C131.664 90.9286 132.309 91.5736 133.105 91.5736Z" fill="#38C20E"/>
    <path d="M132.157 92.2468C131.456 92.196 130.841 92.8058 130.782 93.6089C130.724 94.4119 131.245 95.104 131.946 95.1548C132.647 95.2056 133.262 94.5959 133.32 93.7928C133.378 92.9898 132.858 92.2976 132.157 92.2468Z" fill="#D7680F"/>
    <path d="M131.816 92.674C131.49 92.6504 131.203 92.9342 131.176 93.3079C131.149 93.6817 131.392 94.0039 131.718 94.0275C132.044 94.0511 132.331 93.7673 132.358 93.3936C132.385 93.0198 132.142 92.6977 131.816 92.674Z" fill="#E59C0B"/>
    <path d="M133.864 90.6931C133.163 90.6423 132.548 91.2521 132.489 92.0552C132.431 92.8582 132.952 93.5503 133.653 93.6011C134.354 93.6519 134.969 93.0421 135.027 92.2391C135.085 91.4361 134.565 90.7439 133.864 90.6931Z" fill="#D7680F"/>
    <path d="M133.517 91.1201C133.191 91.0964 132.905 91.3802 132.878 91.754C132.85 92.1277 133.093 92.4499 133.419 92.4735C133.745 92.4972 134.032 92.2134 134.059 91.8396C134.086 91.4659 133.843 91.1437 133.517 91.1201Z" fill="#E59C0B"/>
    <path d="M132.006 90.1373C131.401 89.7811 130.579 90.055 130.171 90.749C129.762 91.443 129.923 92.2943 130.528 92.6505C131.134 93.0067 131.956 92.7328 132.364 92.0388C132.772 91.3448 132.612 90.4934 132.006 90.1373Z" fill="#D7680F"/>
    <path d="M131.513 90.3648C131.231 90.199 130.849 90.3265 130.659 90.6495C130.469 90.9725 130.544 91.3688 130.825 91.5345C131.107 91.7003 131.49 91.5729 131.68 91.2498C131.87 90.9268 131.795 90.5306 131.513 90.3648Z" fill="#E59C0B"/>
    <path d="M108.441 88.0315C112.043 88.0315 114.964 85.1111 114.964 81.5085C114.964 77.906 112.043 74.9856 108.441 74.9856C104.838 74.9856 101.918 77.906 101.918 81.5085C101.918 85.1111 104.838 88.0315 108.441 88.0315Z" fill="#FAC014"/>
    <path d="M99.2987 80.155C101.353 80.7593 102.742 82.5362 102.953 84.5413C103.343 84.5343 103.742 84.5847 104.138 84.7014C105.404 85.0737 106.34 86.026 106.742 87.1838C107.502 86.6163 108.511 86.3999 109.49 86.6877C110.739 87.0541 111.583 88.135 111.711 89.3541C111.95 89.3498 112.191 89.3807 112.433 89.451C113.698 89.8232 114.423 91.1494 114.05 92.415C113.944 92.7775 113.758 93.0951 113.518 93.3564L105.924 91.1244L102.671 90.1678L88.0844 85.8799C88.0704 85.4854 88.118 85.0792 88.236 84.6788C88.8219 82.6866 90.9109 81.546 92.9043 82.1316C93.1136 82.1921 93.3129 82.2706 93.5027 82.3632C94.6882 80.457 97.0401 79.4918 99.2991 80.1562L99.2987 80.155Z" fill="#BAE6FF"/>
    <path d="M132.2 51.8171H40.3984V143.618H132.2V51.8171Z" fill="#F9F9F9"/>
    <path d="M125.071 60.6565H47.5254V119.957H125.071V60.6565Z" fill="#87AAFF"/>
    <path d="M125.074 92.238V119.957H62.0898C66.4691 97.1169 81.852 80.2449 100.164 80.2449C109.618 80.2449 118.292 84.7417 125.074 92.238Z" fill="#253569"/>
    <path d="M97.5437 119.957H47.5254V100.878C52.6655 97.5566 58.4213 95.6953 64.5033 95.6953C78.3605 95.6957 90.5407 105.36 97.5437 119.957Z" fill="#00CC96"/>
    <path d="M68.6667 83.5599C72.5708 83.5599 75.7357 80.395 75.7357 76.4909C75.7357 72.5868 72.5708 69.4219 68.6667 69.4219C64.7626 69.4219 61.5977 72.5868 61.5977 76.4909C61.5977 80.395 64.7626 83.5599 68.6667 83.5599Z" fill="#FFE347"/>
    <path d="M58.7491 77.8765C61.0682 77.8765 63.0549 79.2979 63.8865 81.3186C64.2908 81.1909 64.7224 81.1221 65.1677 81.1221C66.5966 81.1221 67.861 81.8276 68.6337 82.9065C69.2493 82.083 70.2313 81.551 71.3379 81.551C72.7481 81.551 73.9566 82.4166 74.4609 83.6443C74.7066 83.567 74.9683 83.5248 75.2406 83.5248C76.6691 83.5248 77.8284 84.6822 77.8284 86.1127C77.8284 86.5212 77.7331 86.9091 77.5644 87.2533H68.9891H65.3138H48.8422C48.7059 86.8459 48.6328 86.4103 48.6328 85.958C48.6328 83.7076 50.4562 81.8838 52.707 81.8838C52.9429 81.8838 53.1734 81.9049 53.3984 81.9428C54.0484 79.5971 56.196 77.8765 58.7491 77.8765Z" fill="#BAE6FF"/>
  </g>
  <defs>
    <clipPath id="clip0_572_4334">
      <rect width="200" height="200" fill="white"/>
    </clipPath>
  </defs>
</svg>