<svg xmlns="http://www.w3.org/2000/svg" width="200" height="200" viewBox="0 0 200 200" fill="none">
  <g clip-path="url(#clip0_572_4291)">
    <path d="M99.9982 199.934C155.208 199.934 199.965 155.177 199.965 99.967C199.965 44.7567 155.208 0 99.9982 0C44.788 0 0.03125 44.7567 0.03125 99.967C0.03125 155.177 44.788 199.934 99.9982 199.934Z" fill="#6BC1FF"/>
    <path d="M199.968 98.2304L159.994 58.449L159.414 86.2573L133.344 60.058L88.9286 100.998L45.4141 57.4834L45.5426 60.8311L42.1953 57.4834L42.3238 60.2514L39.5559 57.4834L39.6844 60.9596L36.3371 57.6119L35.05 73.9619L34.6641 76.8584L40.586 81.9436L40.6504 142.903L42.0664 144.126L42.002 144.19L97.8115 200C98.5197 200 99.2923 200 100 200C155.23 200 199.968 155.262 199.968 100.032C199.968 99.453 199.968 98.8737 199.968 98.2304Z" fill="#5492CD"/>
    <path d="M157.161 57.7408L157.74 99.8393V100.225H156.71C156.324 100.225 156.067 100.483 156.067 100.805C156.067 101.127 156.388 101.384 156.71 101.384H157.676L155.938 137.175C155.938 137.175 155.681 141.037 160.444 142.067C160.444 142.067 163.984 141.166 164.563 137.496C165.079 134.278 163.083 107.628 162.632 101.384H163.984C164.37 101.384 164.627 101.127 164.627 100.805C164.627 100.483 164.306 100.225 163.984 100.225H162.568V99.9678C162.568 99.9678 161.859 96.685 166.752 95.1401C166.752 95.1401 164.241 68.6838 162.31 62.6974C160.379 56.7111 157.353 56.3888 157.225 57.7408H157.161Z" fill="white"/>
    <path d="M157.74 100.226H156.71C156.324 100.226 156.067 100.483 156.067 100.805C156.067 101.127 156.388 101.385 156.71 101.385H157.676L155.938 137.175C155.938 137.175 155.681 141.037 160.444 142.067C160.444 142.067 163.984 141.166 164.563 137.497C165.079 134.278 163.083 107.628 162.632 101.385H163.984C164.37 101.385 164.627 101.127 164.627 100.805C164.627 100.483 164.306 100.226 163.984 100.226H162.568H157.804H157.74Z" fill="#0E0637"/>
    <path d="M42.2599 57.4833C42.2599 57.4833 43.1611 71.838 43.1611 74.9275H44.9635L44.7705 57.6763C44.7705 57.6763 44.9635 57.0325 45.4143 57.5477C45.4143 57.5477 47.7314 73.3829 47.7314 75.3786C47.7314 75.3786 48.1174 79.3052 47.6029 80.7216C47.0877 82.1376 42.1955 85.2919 42.1955 86.4505L42.0025 94.7545C43.0326 95.0763 43.7404 95.8486 43.7404 96.6213C43.7404 97.458 43.1611 98.1021 42.0666 98.4881L43.676 101.385C43.676 101.385 44.5771 130.094 45.092 135.308C43.9978 140.844 41.4228 143.033 40.8435 143.033C39.5564 142.968 37.0455 138.913 36.5951 135.63L38.2689 101.513L39.6849 98.617C39.6849 98.617 39.492 98.5525 39.2346 98.424C38.4619 98.0381 37.9474 97.3939 37.9474 96.6861C37.9474 95.9134 38.5912 95.2052 39.4924 94.8837C39.4924 94.3045 39.3639 86.7083 39.2994 86.5798C38.9775 84.713 34.7935 82.6533 33.9564 81.4302C33.1197 80.1431 33.5705 75.4439 33.5705 75.4439C33.5705 73.5126 35.8877 57.613 35.8877 57.613C36.3381 57.0977 36.5314 57.7415 36.5314 57.7415L36.3385 75.1216H37.9478C37.9478 72.1607 39.1709 57.613 39.1709 57.613C39.6213 57.0977 39.8146 57.613 39.8146 57.613L40.5873 75.0572H41.424L41.8099 57.613C41.8099 57.613 42.0674 57.0977 42.4537 57.613L42.2599 57.4833Z" fill="white"/>
    <path d="M42.0652 98.4233L43.6102 101.256C43.6102 101.256 44.5113 129.965 45.0262 135.179C43.932 140.715 41.357 142.904 40.7777 142.904C39.4906 142.839 36.9797 138.784 36.5293 135.501L38.2031 101.385L39.6191 98.4882H42.0652V98.4233Z" fill="#0E0637"/>
    <path d="M100.9 151.465C129.342 151.465 152.398 128.408 152.398 99.967C152.398 71.5256 129.342 48.4692 100.9 48.4692C72.4587 48.4692 49.4023 71.5256 49.4023 99.967C49.4023 128.408 72.4587 151.465 100.9 151.465Z" fill="#0E0637"/>
    <path d="M100.901 148.823C127.884 148.823 149.758 126.95 149.758 99.9669C149.758 72.9843 127.884 51.1106 100.901 51.1106C73.9187 51.1106 52.0449 72.9843 52.0449 99.9669C52.0449 126.95 73.9187 148.823 100.901 148.823Z" fill="white"/>
    <path d="M100.9 138.268C122.053 138.268 139.201 121.12 139.201 99.9671C139.201 78.8141 122.053 61.6663 100.9 61.6663C79.7475 61.6663 62.5996 78.8141 62.5996 99.9671C62.5996 121.12 79.7475 138.268 100.9 138.268Z" fill="#FFE8D1"/>
  </g>
  <defs>
    <clipPath id="clip0_572_4291">
      <rect width="200" height="200" fill="white"/>
    </clipPath>
  </defs>
</svg>