<svg xmlns="http://www.w3.org/2000/svg" width="200" height="200" viewBox="0 0 200 200" fill="none">
  <g clip-path="url(#clip0_572_4265)">
    <path d="M99.9986 199.935C155.209 199.935 199.966 155.178 199.966 99.9674C199.966 44.7569 155.209 0 99.9986 0C44.7882 0 0.03125 44.7569 0.03125 99.9674C0.03125 155.178 44.7882 199.935 99.9986 199.935Z" fill="#3D649B"/>
    <path d="M198.614 83.595L164.45 49.4307L54.693 56.2021L48.168 162.881L83.9945 198.708C89.2265 199.569 94.5823 200 99.9991 200C155.216 200 199.968 155.248 199.968 100.031C199.968 94.4294 199.475 88.9509 198.614 83.6572V83.5954L198.614 83.595Z" fill="#253569"/>
    <path d="M57.6484 49.4304H164.451V59.957H63.9883C61.0949 59.957 58.6945 62.3577 58.6945 65.2507V69.1288V191.074C55.0625 189.412 51.5539 187.565 48.168 185.472V58.9105C48.1684 53.6777 52.4156 49.4304 57.6484 49.4304Z" fill="#CCCCCC"/>
    <path d="M164.512 55.6479V60.0186H64.05C61.1566 60.0186 58.7562 62.4194 58.7562 65.3124V69.1905V191.136C57.3406 190.52 55.9246 189.843 54.5703 189.104V64.1425C54.5703 59.4643 58.3867 55.7093 63.0035 55.7093H164.512V55.6479Z" fill="#A9A9A9"/>
    <path d="M75.3769 64.2041H156.325C158.171 64.2041 159.649 65.6814 159.649 67.5283V140.412C159.649 142.259 158.172 143.736 156.325 143.736H75.3769C73.5301 143.736 72.0527 142.259 72.0527 140.412V67.5283C72.0527 65.6818 73.5305 64.2041 75.3769 64.2041Z" fill="#6BC1FF"/>
    <path d="M85.3496 55.6479H92.0594V69.1292C92.0594 70.7909 90.582 72.1456 88.7351 72.1456C86.8883 72.1456 85.4109 70.7913 85.4109 69.1292V55.6479H85.3496ZM139.705 55.6479H146.415V69.1292C146.415 70.7909 144.937 72.1456 143.091 72.1456C141.244 72.1456 139.766 70.7913 139.766 69.1292V55.6479H139.705Z" fill="#B3B3B3"/>
    <path d="M82.0254 88.3964V73.6226H84.9801V79.4093H90.7668V73.6226H93.7832V88.3964H90.7668V81.9327H84.9801V88.3964H82.0254ZM96.3066 81.1327C96.3066 79.6554 96.5527 78.3624 96.9836 77.3163C97.2914 76.5776 97.7836 75.9007 98.3379 75.2847C98.8918 74.669 99.5687 74.2382 100.246 73.9304C101.17 73.5612 102.216 73.3765 103.448 73.3765C105.602 73.3765 107.387 74.0534 108.68 75.4081C109.972 76.7624 110.65 78.6093 110.65 81.0714C110.65 83.4721 109.973 85.3186 108.68 86.6733C107.387 88.0276 105.663 88.705 103.509 88.705C101.293 88.705 99.5691 88.028 98.2769 86.6733C96.9847 85.3186 96.3066 83.4718 96.3066 81.1327ZM99.3843 81.0097C99.3843 82.6714 99.7535 83.9643 100.554 84.8261C101.354 85.6878 102.277 86.1186 103.509 86.1186C104.678 86.1186 105.663 85.6878 106.463 84.8261C107.202 83.9643 107.633 82.6714 107.633 80.9479C107.633 79.2862 107.264 77.9933 106.525 77.1929C105.786 76.3311 104.802 75.962 103.57 75.962C102.339 75.962 101.354 76.3929 100.616 77.2546C99.8769 78.1163 99.5078 79.3476 99.5078 81.071L99.3843 81.0097ZM116.251 88.3964V76.1464H111.88V73.6839H123.576V76.1464H119.205V88.3964H116.251ZM125.485 88.3964V73.6226H136.38V76.0851H128.439V79.3476H135.826V81.81H128.439V85.8112H136.626V88.2737H125.423L125.485 88.3964ZM139.274 88.3964V73.8073H142.29V85.9339H149.677V88.3964H139.274Z" fill="#0E0637"/>
    <path d="M96.7367 91.8435H134.041C136.441 91.8435 138.35 93.8134 138.35 96.1525V132.656H92.4277V96.1525C92.4277 93.7517 94.3973 91.8435 96.7367 91.8435Z" fill="#A86D00"/>
    <path d="M96.9836 92.0896H133.795C136.134 92.0896 138.042 93.9982 138.042 96.3369V132.348H92.7363V96.3369C92.7363 93.9978 94.6449 92.0896 96.9836 92.0896Z" fill="white"/>
    <path d="M92.7363 130.994H138.042V134.626H92.7363V130.994Z" fill="#E6E6E6"/>
    <path d="M94.4594 128.163L95.075 137.643H92.1816L93.4742 128.163H94.4594Z" fill="#6BC1FF"/>
    <path d="M93.9066 116.466C96.2461 116.466 98.1539 118.375 98.1539 120.714C98.1539 121.575 97.9078 122.314 97.4769 122.991C99.5086 123.299 101.109 125.084 101.109 127.238C101.109 129.639 99.2008 131.547 96.8 131.547C95.6305 131.547 94.5836 131.055 93.7836 130.317C93.0449 131.24 91.9371 131.794 90.7055 131.794C88.5508 131.794 86.7656 130.009 86.7656 127.854C86.7656 125.699 88.5508 123.914 90.7055 123.914C90.8902 123.914 91.0133 123.914 91.198 123.914C90.2746 123.114 89.6594 121.944 89.6594 120.652C89.6594 118.312 91.568 116.405 93.9066 116.405V116.466Z" fill="#17BF41"/>
    <path d="M138.35 128.163L138.966 137.643H136.072L137.365 128.163H138.35Z" fill="#6BC1FF"/>
    <path d="M137.735 116.466C140.074 116.466 141.982 118.375 141.982 120.714C141.982 121.575 141.736 122.314 141.305 122.991C143.337 123.299 144.937 125.084 144.937 127.238C144.937 129.639 143.028 131.547 140.628 131.547C139.459 131.547 138.412 131.055 137.612 130.317C136.873 131.24 135.765 131.794 134.534 131.794C132.379 131.794 130.594 130.009 130.594 127.854C130.594 125.699 132.379 123.914 134.534 123.914C134.718 123.914 134.841 123.914 135.026 123.914C134.103 123.114 133.487 121.944 133.487 120.652C133.487 118.312 135.396 116.405 137.735 116.405V116.466Z" fill="#17BF41"/>
    <path d="M91.1367 134.256H139.705V139.304H91.1367V134.256Z" fill="#CCCCCC"/>
    <path d="M105.664 119.237H125.116V130.932H105.664V119.237Z" fill="#6BC1FF"/>
    <path d="M97.168 104.771H103.139V108.956H97.168V104.771ZM118.898 104.771H124.869V108.956H118.898V104.771ZM127.7 104.771H133.671V108.956H127.7V104.771ZM127.7 111.665H133.671V115.851H127.7V111.665ZM118.898 111.665H124.869V115.851H118.898V111.665ZM105.971 104.771H111.942V108.956H105.971V104.771ZM105.971 111.665H111.942V115.851H105.971V111.665ZM97.168 111.665H103.139V115.851H97.168V111.665Z" fill="#999999"/>
    <path d="M100.37 94.614L101.047 96.6456H103.202L101.479 97.8765L102.155 99.9081L100.432 98.6772L98.7086 99.9081L99.3855 97.8765L97.6621 96.6456H99.8168L100.494 94.614H100.37ZM107.018 94.0597L107.818 96.5222H110.404L108.311 98.0608L109.111 100.523L107.018 98.9847L104.925 100.523L105.725 98.0608L103.632 96.5222H106.218L107.018 94.0597ZM130.471 94.614L129.794 96.6456H127.64L129.363 97.8765L128.686 99.9081L130.41 98.6772L132.133 99.9081L131.456 97.8765L133.18 96.6456H131.025L130.348 94.614H130.471ZM123.823 94.0597L123.023 96.5222H120.438L122.531 98.0608L121.731 100.523L123.824 98.9847L125.917 100.523L125.117 98.0608L127.21 96.5222H124.624L123.823 94.0597ZM115.452 93.5054L114.528 96.3987H111.512L113.974 98.1839L113.051 101.077L115.513 99.2921L117.976 101.077L117.052 98.1839L119.515 96.3987H116.498L115.575 93.5054H115.452Z" fill="#E87D04"/>
    <path d="M99.1387 119.114H103.448V122.438H99.1387V119.114ZM127.332 119.114H131.641V122.438H127.332V119.114H127.332Z" fill="#999999"/>
    <path d="M88.7973 66.605C89.8437 66.605 90.7059 67.4667 90.7059 68.5136C90.7059 69.5601 89.8441 70.4218 88.7973 70.4218C87.7508 70.4218 86.8887 69.5601 86.8887 68.5136C86.8887 67.4667 87.7512 66.605 88.7973 66.605Z" fill="#E6E6E6"/>
    <path d="M143.215 66.605C144.262 66.605 145.124 67.4667 145.124 68.5136C145.124 69.5601 144.262 70.4218 143.215 70.4218C142.169 70.4218 141.307 69.5601 141.307 68.5136C141.307 67.4667 142.168 66.605 143.215 66.605Z" fill="#E6E6E6"/>
  </g>
  <defs>
    <clipPath id="clip0_572_4265">
      <rect width="200" height="200" fill="white"/>
    </clipPath>
  </defs>
</svg>