<svg xmlns="http://www.w3.org/2000/svg" width="200" height="200" viewBox="0 0 200 200" fill="none">
  <g clip-path="url(#clip0_279_3735)">
    <path d="M99.998 199.996C155.225 199.996 199.996 155.225 199.996 99.998C199.996 44.7706 155.225 0 99.998 0C44.7706 0 0 44.7706 0 99.998C0 155.225 44.7706 199.996 99.998 199.996Z" fill="#3D649B"/>
    <path d="M199.384 88.9164C199.753 92.5496 200 96.2441 200 100C200 155.234 155.234 200 99.9996 200C96.1203 200 92.3641 199.754 88.6078 199.323L26.5391 137.254L162.684 52.2168L199.384 88.9164Z" fill="#253569"/>
    <path d="M26.5391 137.315C38.9773 135.222 51.3543 133.128 63.6695 130.973C64.5934 116.81 65.4555 102.586 66.3789 88.4234C67.3023 74.2609 68.1648 60.0984 69.0883 45.9355C58.5586 48.0289 48.0293 50.1227 37.3148 52.2164C35.5289 66.3789 33.7434 80.5414 31.9574 94.7043C30.1715 108.867 28.3859 123.091 26.6 137.254L26.5391 137.315Z" fill="#E6E6E6"/>
    <path d="M100 137.315C87.7461 135.222 75.6773 133.128 63.6699 130.973C64.5938 116.81 65.4559 102.586 66.3793 88.4234C67.3027 74.2609 68.1652 60.0984 69.0887 45.9355C79.3105 48.0289 89.6555 50.1227 100.062 52.2164C100.062 66.3789 100.062 80.5414 100.062 94.7043C100.062 108.867 100.062 123.091 100.062 137.254L100 137.315Z" fill="#B3B3B3"/>
    <path d="M64.9637 110.714L65.8258 97.4754C66.4418 97.4754 66.5031 97.2293 67.427 97.4754C67.55 97.5371 67.673 97.5371 67.7961 97.5371C67.7961 97.5371 67.8578 97.5371 67.8578 97.5988L67.9195 97.6606C68.0426 97.7836 68.1043 97.9066 68.2273 98.0297C68.8434 98.4606 69.4586 98.9535 70.0133 99.3844C71.1832 99.7535 71.1832 99.0766 72.4766 100.062C73.0309 100.493 72.7844 100.493 73.0926 100.986C73.1543 101.047 73.2156 101.17 73.2773 101.232C73.4004 101.478 73.5234 101.725 73.6465 101.971C74.2625 102.587 75.0625 102.217 75.9246 102.833C76.4176 103.202 76.0477 103.079 77.0945 103.264C78.757 103.448 78.0797 103.325 79.3727 104.126C79.8656 104.372 79.9887 104.249 80.4195 104.495C81.0355 105.172 80.9125 105.911 80.3578 106.527C78.7566 108.374 79.3109 108.066 79.1879 109.544C79.1262 110.406 78.8187 112.13 77.8332 112.315C74.1387 113.116 76.2937 113.67 75.3086 115.086C75.0008 115.517 74.8156 115.579 74.6312 115.887C73.8922 117.241 74.3852 117.673 72.2297 117.365C72.4145 117.673 72.2914 117.427 72.5375 117.734C73.1535 118.534 73.2766 119.089 71.9832 119.273C70.875 119.458 71.3672 119.273 71.2441 120.197C70.8133 120.32 70.6281 120.197 70.3203 120.443C70.6895 120.998 70.3203 120.505 70.9977 120.874C70.8746 121.182 70.8129 121.49 70.6898 121.736C70.4437 122.475 70.382 121.798 70.259 122.598C70.6281 122.721 70.875 122.722 71.2441 123.091C71.1824 123.338 70.875 124.138 70.7512 124.57C71.3055 125.186 71.7363 125.863 72.9063 125.924C72.9063 126.479 73.0293 126.417 72.4754 126.479C71.9824 126.54 70.9359 126.232 70.5051 126.048C69.766 125.74 69.027 125.309 68.5348 124.693C68.227 124.385 68.35 124.508 68.0418 124.2C67.4875 123.646 67.734 123.4 67.5488 123.03C67.4871 122.784 66.9945 122.599 67.1797 121.86C67.2414 121.675 67.6105 120.69 67.118 120.875C66.625 121.06 67.4871 120.937 66.8102 121.244C66.6254 120.875 66.5023 120.382 66.441 119.951C66.2562 119.212 66.0719 119.212 65.948 118.781C65.702 117.796 66.2559 117.673 65.6402 115.949C65.2094 114.841 65.3941 112.193 64.9629 110.838V110.714H64.9637ZM100 72.1059V83.0047C99.8769 82.943 99.8152 82.8816 99.6922 82.8199C99.0762 82.3891 98.8918 81.9578 98.2141 82.0809C98.2141 82.5117 98.2758 82.5117 98.5219 82.8199C99.507 83.8051 99.1992 83.4359 100 83.8051V85.1598C99.9383 85.1598 99.877 85.2215 99.8152 85.2215C99.6305 84.7906 100.061 85.0367 99.5074 84.4211C99.1996 84.1133 98.9531 84.052 98.4605 83.8668C97.2906 83.4359 97.4754 83.1277 96.7363 82.5738C95.9359 82.5738 96.1203 82.7586 95.5664 83.0047C94.8891 83.2508 95.0121 82.943 94.2117 83.0047C93.5957 83.8668 94.5195 83.1277 93.2879 83.8668C91.8719 84.7289 93.0418 85.591 90.7633 85.8371C90.5785 85.8371 90.5172 85.8371 90.3941 85.8988C89.9633 86.0219 90.2094 85.8988 89.9633 86.0836C90.148 86.4527 89.9016 86.3914 90.6406 86.4527C92.0566 86.5758 92.2418 85.9598 93.227 85.7754C93.7199 85.7137 96.8602 85.5906 97.1063 85.6524C97.7836 86.2684 97.2293 86.6375 97.2293 87.1305C97.9684 87.4383 99.0152 87.4996 99.4461 87.8078C99.9391 88.177 99.6922 88.1156 99.9391 88.177V94.7656V114.716L99.8773 114.655C99.7543 114.47 99.5695 114.286 99.5082 114.1C98.9539 112.807 99.2004 111.822 98.2152 110.529C97.0453 108.805 98.8312 107.943 98.7695 106.957C98.7695 106.711 98.6465 106.527 98.5848 106.341C98.3387 105.295 98.2156 104.309 97.2918 103.509C96.3066 102.585 96.4297 102.955 96.7375 101.416C97.1684 99.6914 96.1832 100.123 94.8902 100.123C94.2129 98.5832 92.9812 99.3223 91.6883 99.8149C90.8879 100.123 90.5801 99.7531 89.718 99.8149C87.7477 99.9996 89.2871 100.677 86.6391 99.0758C85.5309 98.3984 86.2699 98.768 85.5922 97.9059C85.3461 97.5981 84.6684 97.1668 84.3609 96.859C83.3758 95.8738 84.5457 94.8887 84.3609 93.7188C84.0531 91.6254 83.6219 93.4727 85.1 90.8863C85.9004 89.5317 87.0703 89.5317 87.3781 88.916C87.6242 88.3617 87.4398 87.9922 87.9941 87.5C88.425 87.0692 89.041 87.1922 89.2871 86.5762C89.6563 85.7758 88.9793 85.7141 88.2402 85.6524C87.9324 84.852 87.9324 85.0363 88.1785 84.2977C88.3016 83.8668 88.1785 83.6816 88.3016 83.2508C88.6094 82.2039 90.8879 83.2508 91.5648 82.8199C91.8727 82.3891 91.934 81.9578 91.5648 81.527C91.1957 81.0961 90.7027 81.1578 90.4566 80.7266C91.0109 80.4188 90.5797 80.6649 91.0727 80.6035C91.627 80.4805 91.5656 80.3574 92.2426 80.2957C92.8586 80.234 93.2277 79.8027 93.8438 79.4953C94.7059 79.0645 94.2746 78.6949 95.3219 78.5715C96.923 78.3254 95.8762 78.3867 96.0609 77.2168C96.307 77.1551 96.5539 77.032 96.8 76.9707C97.293 77.4637 96.677 77.2785 97.293 77.6481C97.4777 77.5863 97.6621 77.525 97.8473 77.402C97.7855 76.8477 97.4164 76.9711 97.2312 76.232C96.4309 76.3551 96.123 76.8481 95.507 76.6629C94.891 76.4781 94.8297 75.8008 94.891 75.1848C95.1371 74.7539 96.307 74.5074 96.7383 74.3844C97.4773 74.1996 97.3543 73.8301 98.0312 73.2762C98.8934 72.5988 98.2773 73.2762 98.7086 72.4141C99.6937 72.4141 99.2016 72.3524 99.8168 72.1063L100 72.1059ZM66.7488 82.6356L67.1797 75.4309C67.3027 75.2461 67.4875 75 67.734 74.7535C67.9801 74.7535 69.027 74.8152 69.2121 74.8766C69.9512 74.9996 69.5199 75.1227 70.3203 75.3695C70.3203 75.8625 70.0125 76.4777 70.9363 76.3547C71.6754 76.2317 71.4906 75.8004 72.3523 75.6774C72.7215 76.4164 72.6602 76.7242 72.8453 77.5863C74.9387 78.2024 74.0152 78.7563 73.5844 79.9262C73.8305 80.0492 74.1387 80.1109 74.3848 80.234C74.3848 80.6031 74.3848 80.9113 74.323 81.2809C74.2613 81.2809 72.0449 80.9117 71.9215 80.85C72.2293 80.1109 72.9066 80.1109 73.2762 79.3106C72.4758 79.4336 72.5371 79.6184 71.9832 79.7414C71.4902 79.8645 71.0594 79.8031 70.5051 79.8031C70.3203 80.2961 70.5051 79.3723 70.5668 79.9879C70.5668 80.234 70.7516 79.9879 70.5668 80.234C69.8277 79.9879 70.0738 79.3719 68.7195 79.9262C69.0273 80.0492 69.3355 80.1109 69.6434 80.234C69.5816 80.9113 69.5203 80.4188 69.3355 80.85C68.8426 82.0199 70.6285 81.2809 71.0598 81.2192C70.9367 81.8352 70.4438 81.8352 69.7668 82.0195C68.9664 82.2043 68.7816 82.4504 68.1656 82.5738C68.1656 81.8348 68.0426 82.4508 68.4734 81.9578C67.8574 82.0195 67.4266 82.2039 66.8109 82.3887H66.7492L66.7488 82.6356ZM67.3648 73.3371L67.5496 70.8125C67.8574 70.6895 68.227 70.6277 68.5965 70.6277C73.2762 70.6277 71.0598 70.8125 72.4758 71.3051C72.7836 71.4281 73.3996 71.4899 73.584 71.6742C73.8918 72.0434 73.584 72.3516 74.077 72.5981C74.5078 72.8441 74.5699 72.5981 75.0621 73.091C74.9391 73.3988 74.693 73.707 74.077 73.707C73.2766 73.707 73.7691 73.2762 72.907 73.3379C72.907 73.9539 73.7074 74.2 72.9687 74.5078C72.3527 74.8156 72.7227 74.3848 72.2297 74.6309C72.2297 74.6309 72.168 74.6309 72.168 74.6926L72.1063 74.7543C72.0445 74.816 71.9215 74.8774 71.8602 74.9391C70.6902 74.693 70.875 74.816 70.1977 74.2C69.9516 73.9539 69.8898 73.8922 69.3973 73.9539C69.0895 73.9539 68.7199 74.077 68.4121 73.8922C68.9664 73.3379 69.2742 73.8922 70.0746 73.5231C70.1977 73.4613 71.1215 72.907 71.3059 72.784C71.0598 72.3531 71.3059 72.7223 70.9367 72.4149C70.1363 71.7375 69.8898 71.9219 68.7816 71.9219C68.2887 72.4149 67.8578 72.9688 67.3035 73.2149L67.3648 73.3371ZM90.4559 76.8473C90.4559 78.1402 91.0102 77.7094 91.5641 78.3254C91.318 78.8797 91.2562 78.4484 91.0098 79.0027C90.7637 79.4957 91.0715 79.0645 90.8867 79.8649C91.3176 79.8649 91.9336 79.7418 92.4879 79.7418C93.2883 79.6801 93.2883 79.6188 93.5348 79.0027C93.1039 78.5719 92.6727 78.1406 92.1801 77.7715C91.6258 77.0942 92.1801 77.5867 91.9953 76.9711C91.8723 76.7863 91.7492 76.5402 91.6262 76.3551C90.8871 76.5399 90.9488 76.4781 90.3949 76.8481L90.4559 76.8473Z" fill="#0E0637"/>
    <path d="M99.9992 137.315C112.191 135.222 124.261 133.128 136.329 130.973C135.405 116.81 134.543 102.586 133.62 88.4234C132.696 74.2609 131.834 60.0984 130.911 45.9355C120.689 48.0289 110.344 50.1227 99.9375 52.2164C99.9375 66.3789 99.9375 80.5414 99.9375 94.7043C99.9375 108.867 99.9375 123.091 99.9375 137.254L99.9992 137.315Z" fill="#E6E6E6"/>
    <path d="M173.46 137.315C160.96 135.222 148.584 133.128 136.33 130.973C135.406 116.81 134.544 102.586 133.621 88.4234C132.697 74.2609 131.835 60.0984 130.911 45.9355C141.379 48.0289 151.97 50.1227 162.685 52.2164C164.471 66.3789 166.256 80.5414 168.042 94.7043C169.828 108.867 171.613 123.091 173.461 137.254V137.315H173.46Z" fill="#B3B3B3"/>
    <path d="M34.4209 74.6304L34.2979 75.8617C35.4061 76.1078 36.6377 75.9847 37.1303 76.0465C37.9924 76.1695 37.4994 76.1695 38.4232 75.9847C38.9162 75.8617 39.5932 75.6156 39.7162 75.6156C39.9623 75.6156 40.3936 75.8617 41.1322 75.9234C42.7334 76.0465 42.5482 76.7238 42.4869 77.8324C42.6717 77.8941 42.7947 77.8941 42.9799 77.9554C42.9799 77.9554 43.0416 78.0172 43.1029 78.0172C43.1029 78.0172 43.1646 78.0789 43.226 78.0789C43.226 78.0789 43.2877 78.0789 43.349 78.1406C43.1643 78.6949 43.226 78.3867 43.226 79.0644C43.2877 79.6804 43.1029 79.6804 42.9182 80.1113C43.5342 80.9734 43.6572 80.8504 42.9182 81.8972C41.933 83.3754 41.0092 83.5597 41.317 85.6535C41.44 86.2695 41.5631 86.7004 42.1174 87.0082C42.3635 87.1312 42.1174 86.9465 42.3635 87.1929C42.6096 87.3777 42.4252 87.1312 42.5482 87.439C42.8561 87.6851 42.5482 87.316 42.733 87.6851C42.9791 88.1781 42.7947 88.3625 43.0408 88.7933C43.6568 90.0246 43.3486 88.9164 43.3486 90.148C44.2725 90.4558 43.9646 90.2711 44.2725 91.0101C44.4572 91.441 44.8268 91.7492 45.3193 91.8105C44.765 89.8402 42.9178 88.6086 44.0881 88.1773C44.9502 88.7316 44.0881 88.7933 44.8272 89.5933C45.9971 90.7633 45.3201 90.2094 45.8123 90.8246C46.0584 91.1324 46.4896 91.4406 46.8592 91.8715C47.5365 92.6105 47.167 92.6718 47.167 93.4726C47.9061 94.0269 49.0143 94.4578 50.1225 94.8273C51.4154 95.2582 50.7385 95.1351 51.9084 95.0121C52.7088 94.9504 52.8322 95.4429 53.2631 95.7511C54.3713 96.4902 55.2334 95.6281 56.1572 97.2293C56.5881 97.9683 55.7881 97.1676 57.2654 98.2761C57.7584 98.5222 58.2506 98.707 58.7436 98.9535C59.0514 98.5226 58.7436 98.4605 59.4209 98.2144C59.7287 98.3992 60.0982 98.9535 60.283 99.3843C60.899 101.601 57.8814 101.601 59.2361 103.448C58.99 103.941 58.6818 103.818 58.867 104.434C59.0518 105.111 59.2978 104.927 59.6674 105.296C60.5295 106.158 61.5147 108.436 62.6229 109.052C62.6229 109.052 62.6846 109.052 62.6846 109.114C63.485 109.545 64.4088 109.791 64.8397 110.284C64.9627 110.407 65.0244 110.591 65.0857 110.838L65.9479 97.5988C65.7631 97.5988 65.4549 97.5371 65.0857 97.4758C64.2236 97.291 64.1006 96.6136 63.3615 97.291C63.2385 97.1062 63.1154 96.9218 62.9924 96.7367C62.8693 96.7984 62.8076 96.8597 62.6846 96.8597C61.6377 97.3527 61.5146 96.9828 61.0834 97.7218C60.8373 98.1527 61.0217 97.9679 60.5904 98.3379C59.9131 98.2761 60.0361 97.907 59.2975 98.0301C58.6201 98.0918 58.6201 98.523 57.8193 98.0918C56.8342 97.5375 57.5115 96.4293 57.4502 95.4437C56.1572 94.8894 56.1572 95.4437 55.1721 95.1359C54.9873 94.7668 55.3568 94.3355 55.4799 94.089C55.6647 93.6582 55.849 93.2886 55.726 92.7343C54.3713 92.5496 54.4947 92.9191 54.0635 93.5347C53.4475 94.5199 51.0463 94.3968 50.9232 92.3035C50.8615 91.5644 51.2311 91.0722 51.4162 90.3332C51.5393 89.7789 52.1553 89.5328 52.7092 89.225C53.8174 88.6707 54.1873 89.348 54.926 89.225C55.6033 89.1019 55.3568 88.4859 57.0193 88.8558C58.5588 89.1636 58.1275 88.7328 58.4354 90.1488C58.8045 90.2719 59.1744 90.3336 59.5436 90.4566C59.4205 88.2398 58.5584 88.8554 60.4057 87.5625C60.96 87.1933 61.2061 87.1933 61.8217 86.8851C62.5607 86.516 62.7455 86.516 62.5607 85.5304C62.5607 85.5304 62.6225 85.4687 62.6838 85.4687C63.1146 85.1609 63.6076 84.7914 64.0385 84.4836C64.4693 84.1144 65.2697 83.9293 65.8857 83.8062C65.9475 83.0672 66.0705 83.0058 66.8709 82.7593L67.3018 75.5547C66.4397 76.9093 68.0408 77.648 64.7772 78.2027C64.5311 78.8801 64.5311 79.8652 63.5459 79.3726C63.115 78.8183 63.7307 78.4488 63.7307 77.9566C63.2998 77.8949 62.9916 77.8336 62.7455 77.7718C61.3908 77.464 61.8217 77.1558 60.4674 77.0945C60.4057 76.2941 60.2213 76.7254 60.2213 76.0476C60.7756 75.6168 61.7607 75.1855 62.7459 74.8164C63.6697 74.5086 64.5932 74.2004 65.3322 74.016C65.2092 74.2008 65.0861 74.3851 64.9631 74.5703C65.8869 75.0011 65.5174 75.1863 65.9482 75.0633C66.3791 74.9402 65.9482 74.8785 65.9482 74.8785C65.8865 74.7554 65.0244 74.7554 65.9482 74.5094C66.3791 74.3863 66.6256 74.5711 67.0564 74.6324C66.9947 73.7086 66.3791 74.2633 66.0713 73.5242C66.6256 73.709 66.9951 73.6472 67.3643 73.5242L67.549 70.9996C67.1182 71.1843 66.81 71.4304 66.6252 71.8C66.81 72.1078 67.1795 72.1078 67.3643 72.2929C67.1182 72.6621 66.5022 73.032 65.8861 73.032C66.2553 71.6773 65.2088 73.3398 65.4553 71.3695C66.0096 71.1847 66.6865 71.1847 67.1178 70.8765C66.933 70.8148 66.7486 70.6918 66.5635 70.6304C65.7014 70.5074 65.3322 71.1847 64.8393 71.4308C64.6545 71.123 64.901 71.123 64.901 70.7535C64.2236 70.6918 63.2998 70.8765 62.8689 71.2465C63.3619 71.6156 63.2381 71.5543 64.0389 71.6773C63.5459 72.4164 64.3467 72.4164 63.4229 72.8472C63.4229 72.8472 63.4229 72.7242 63.3611 72.7855V72.7238C63.2994 72.6008 63.2994 72.4777 63.2381 72.2929C62.992 72.2929 62.8689 72.2929 62.7451 72.3547C62.4373 72.4777 62.3143 72.6625 62.1291 72.9707C61.5748 72.9707 60.7744 73.0937 60.2201 72.909C59.6041 72.6629 59.974 72.7859 59.7271 72.6011C61.3896 72.7242 60.651 72.6011 61.8822 72.3551C61.8205 72.1703 61.7592 72.1703 61.6975 72.109C61.3283 71.4929 61.7592 72.4168 61.4514 71.7398C61.8205 71.2469 61.9443 71.309 62.1904 70.9394C61.4514 70.9394 60.9592 71.3086 60.3432 71.2472C58.6189 71.1242 57.5107 70.0773 55.9096 70.7543C55.4166 70.939 54.5549 71.1851 54.5549 71.6781C55.2939 71.8011 55.7248 71.6164 56.4639 71.4933C56.3408 71.8625 56.1561 72.2324 56.033 72.6015C55.1709 72.6015 55.54 72.5398 54.8018 72.4168C54.0627 72.232 54.0014 72.4168 53.3236 72.3551C52.3385 72.2933 53.0775 72.1703 52.2768 72.109C51.2299 72.0472 49.5674 72.6019 48.5205 72.5398C46.7963 72.2937 45.1338 72.0468 43.41 71.8008C42.3018 71.616 37.7451 72.5398 37.4986 72.7246C37.0678 72.9707 37.5603 72.9707 37.4369 73.6484C36.6978 73.6484 34.9123 73.3406 34.7889 74.2027C35.4049 74.3875 35.8357 74.2027 36.267 74.4488C35.8361 74.7566 35.2201 74.8179 34.6045 74.8797L34.4209 74.6304Z" fill="#0E0637"/>
    <path d="M133.928 92.6109L133.682 88.4855L132.574 70.505C131.527 70.0121 132.389 69.7047 130.049 69.6429C128.941 69.6429 128.571 69.2121 127.094 69.5812C126.047 69.889 126.478 69.6429 125.554 69.7043C124.692 69.9504 123.83 70.1972 122.968 70.4433C122.599 70.6894 122.599 70.5664 122.167 70.6281C121.059 70.8742 122.044 70.6898 121.49 70.9359C120.505 71.3668 120.382 71.059 119.951 71.182C119.766 71.2437 119.704 71.3668 119.396 71.4898C118.965 70.9355 118.903 70.8125 117.918 70.9355C117.118 71.9207 117.733 71.7976 118.349 72.4136C117.487 72.3519 116.748 71.9207 115.824 72.0445C115.27 72.1062 115.517 72.1062 115.27 72.4754C114.593 72.2906 114.654 72.4754 113.977 72.4754C113.177 72.5371 113.238 72.3523 112.684 72.4136C111.76 72.4754 111.145 73.0297 110.529 73.091C110.098 72.5367 110.837 72.598 109.913 72.475C109.605 72.8441 109.728 72.7211 109.913 73.214C108.989 73.2757 108.682 73.214 108.435 73.8914C108.189 73.8297 107.881 73.8297 107.635 73.7683C107.388 73.9531 107.635 73.83 107.45 74.1992C106.649 74.0144 106.588 74.0144 106.403 73.3371C107.388 73.2754 108.004 73.7062 108.681 73.1523C108.496 72.2285 105.726 72.2285 104.802 71.9824C103.632 71.6133 102.954 71.4281 101.353 71.7976C100.922 71.9207 100.491 71.9207 100.122 72.0437H100.06V82.9429C100.491 83.1277 100.984 83.3121 101.292 83.4972C101.661 84.2976 101.169 83.9281 101.908 84.7902C102.338 85.2211 102.215 85.5906 102.708 85.8371C103.508 85.7754 102.831 85.9601 103.324 85.5293C103.386 85.4676 103.632 85.2215 103.755 85.1601C103.509 84.8523 103.324 84.8523 103.078 84.4828C104.001 83.559 104.371 84.0519 104.617 84.7289C105.171 86.4531 106.095 85.9601 106.834 85.8988C107.573 85.8371 106.957 85.8988 107.634 86.0836C108.25 86.2066 107.942 86.0836 108.435 86.0218C109.974 85.714 108.804 88.0539 108.619 88.3C107.757 88.3617 107.942 88.2383 107.326 88.1769C106.095 88.0539 107.388 88.7312 104.494 87.9922C101.723 87.3148 102.339 87.1301 101.723 88.6695C101.107 88.6078 101.107 88.5465 100.553 88.3617C100.307 88.3 100.184 88.2386 100.122 88.2386V94.8273V114.778C100.43 115.209 100.799 115.64 100.922 116.133C101.107 116.749 100.615 116.872 101.292 117.303C101.538 117.426 104.247 117.426 105.54 116.502C105.786 116.318 105.971 116.256 106.217 115.948C106.525 115.64 106.525 115.517 106.772 115.148C107.141 114.717 107.203 115.025 107.449 114.47C107.695 114.039 107.572 113.731 107.757 113.423C108.126 113.177 108.557 113.177 108.865 112.807C109.296 111.329 108.188 111.453 109.234 110.529C110.219 109.667 111.081 109.544 111.328 109.236C112.497 108.066 110.588 105.172 111.204 104.126C111.759 103.202 112.067 103.141 112.621 102.34C113.729 100.924 115.145 100.985 116.007 99.1379C116.253 98.5836 117.238 97.5984 116.808 96.9828C116.438 96.7367 114.221 97.5371 113.421 97.3519C112.928 96.4281 113.236 96.2437 112.066 95.566C110.527 94.6422 111.573 94.8269 110.588 93.9035C110.095 93.4726 110.28 93.5343 110.157 92.8566C110.034 92.3636 109.726 92.2406 109.48 91.8715C109.234 91.5636 108.372 90.1472 108.556 89.7164C109.356 89.6547 109.726 90.4554 110.096 90.9476C110.342 91.2554 110.588 91.3785 110.712 91.6867C110.958 92.0558 110.773 92.3027 111.142 92.7336C111.881 93.6574 111.881 92.9797 112.621 94.8269C112.867 95.3812 113.113 95.8738 113.36 96.4281C114.529 96.3664 115.638 95.689 116.685 95.3812C117.732 95.0734 117.054 95.1351 117.67 94.7652C118.039 94.5191 118.286 94.6422 118.717 94.3961C119.271 94.0883 120.995 92.5488 120.81 91.9945C120.379 91.5636 120.503 91.7484 119.825 91.4402C118.963 91.1324 119.517 91.0093 118.963 90.5781C118.347 90.9472 118.101 91.3172 116.993 91.2554C116.993 91.1937 116.931 90.8863 116.87 90.8863C116.685 90.5172 116.315 90.332 116.008 90.0859C115.577 89.7168 115.084 89.5929 115.146 88.8547C116.254 88.3617 116.131 89.2238 116.931 89.7168C118.101 90.5172 118.04 90.1476 119.21 90.0859C119.887 90.825 120.01 90.7632 121.18 90.825C121.796 90.8867 123.335 90.7019 123.766 90.825C124.259 91.1941 124.813 91.564 125.306 91.9332C125.552 92.3023 125.367 92.4261 125.799 92.6722C126.415 92.98 126.353 92.6722 127.03 92.6105C127.153 92.9183 127.276 93.7804 127.399 94.2117C127.645 95.0738 128.015 95.5664 128.323 96.305C128.508 96.7359 129.308 98.2754 129.493 98.3371C130.109 98.3988 130.601 97.475 130.724 97.1058C130.97 96.1207 130.786 95.9359 130.909 95.1355C131.894 94.6425 132.448 93.9043 133.372 93.2882C134.111 92.7953 133.68 92.9804 134.111 92.5492L133.928 92.6109ZM99.999 83.7437V85.0984C100.615 84.8523 99.6912 84.7906 100.676 84.1133C100.369 83.9285 100.184 83.805 99.999 83.7437ZM115.701 107.574C115.085 107.82 114.962 108.436 114.47 108.744C113.916 109.113 113.239 108.928 113.054 109.668C112.808 110.53 113.485 110.284 112.746 111.392C112.438 111.823 112.438 112.87 112.869 113.178C114.162 114.163 114.84 111.7 115.147 110.961C115.394 110.407 115.578 109.791 115.825 109.298C116.071 108.744 116.379 108.313 115.763 107.574H115.702V107.574H115.701ZM113.608 82.0812C113.731 83.1894 114.593 83.6207 115.147 84.1133C115.085 84.6675 114.901 84.4824 114.901 85.2215C115.64 85.6523 116.132 85.8988 117.118 85.6523C117.241 84.7285 116.872 84.7902 116.502 84.1742C116.563 84.1125 116.748 83.9894 116.748 83.9894C116.994 83.7433 116.871 84.1125 116.994 83.6203C116.317 83.4355 115.208 82.8812 115.085 82.2043C115.393 82.0195 115.331 82.1425 115.578 82.0195C116.132 81.7734 115.701 82.1426 116.009 81.7117C115.701 81.2808 115.393 81.2187 114.716 81.4039C114.408 81.4656 113.669 81.8968 113.485 82.0199L113.608 82.0812ZM107.573 82.389C107.142 81.8961 107.142 81.65 106.28 81.65C105.911 81.9578 105.541 82.389 105.295 82.8199C104.987 83.4972 105.233 83.0047 105.233 83.7437V83.8054C105.233 84.2363 105.11 83.7437 105.172 84.1133C105.849 83.9902 105.356 83.9902 105.849 83.8672C106.342 83.7441 107.819 83.3742 108.251 83.498C109.236 83.6828 110.098 84.2984 111.268 83.6828C111.206 82.8824 109.975 82.5746 109.113 82.2668C109.174 81.5277 109.421 82.082 109.359 81.4047C109.051 81.4047 108.866 81.3429 108.62 81.4664C107.942 81.7125 108.312 81.7742 108.312 81.8355C108.312 82.2047 108.989 81.7738 108.312 82.2664C108.128 82.389 107.82 82.389 107.573 82.389Z" fill="#0E0637"/>
    <path d="M137.315 70.6899C139.47 70.6899 138.731 71.3059 139.839 71.552C140.702 71.7981 140.147 71.4289 141.132 71.3672C141.44 71.3672 141.748 71.4289 142.056 71.3672C142.918 71.3055 142.487 71.2442 142.795 71.1211C143.411 70.875 145.751 70.9364 146.305 71.0594C146.86 71.2442 146.798 71.3055 147.66 71.4903C148.768 71.675 150.062 71.3055 151.047 71.7364C151.663 71.9825 151.416 72.1055 152.402 72.1055C153.202 72.1055 154.003 71.9207 154.741 72.1055C155.604 72.2903 155.049 72.1055 156.096 71.9207C156.404 71.859 156.65 71.9207 156.958 71.9824C157.697 72.1672 157.513 72.2903 158.498 72.2903C160.222 72.2285 161.269 72.8446 162.87 73.0293C163.917 73.1524 165.025 72.9676 164.963 74.0145C163.855 74.1375 162.931 73.3371 161.884 73.8297C161.946 74.6301 162.5 74.1375 163.054 74.7535C162.993 74.7535 162.931 74.7535 162.931 74.7535C162.131 74.9383 161.761 75.1227 161.145 75.7387C160.345 75.7387 159.729 75.6157 158.867 75.9235C158.744 76.9703 160.468 76.7239 160.222 78.2633C160.222 78.5711 160.222 79.0637 160.16 79.4332C159.421 79.3715 157.697 77.8938 157.328 77.4629C156.712 76.6625 158.498 74.8766 157.451 74.9383C157.082 74.9383 157.328 75.1231 156.896 75.4313C155.85 75.3696 156.342 74.7539 155.049 75.1235C154.741 76.0473 155.48 75.9239 154.926 76.1703C154.372 76.4164 153.941 76.0473 153.51 75.9856C153.448 75.9856 150.616 76.1086 150.493 76.1086C150.185 76.4164 149.631 77.5246 149.508 77.8328C150.432 78.2637 151.047 78.1406 151.355 78.1406C151.786 78.1406 151.971 78.3867 152.279 78.4485C153.326 78.6332 152.279 78.2024 153.141 78.4485C153.757 79.0028 154.434 79.5567 155.05 80.0496C154.927 80.2344 154.804 80.4805 154.742 80.6657C154.065 80.2348 153.942 79.4344 153.141 79.1875C153.018 80.0496 154.126 79.6805 153.51 81.7121C152.956 83.4981 152.586 82.8203 151.601 83.0051C151.355 83.1281 150.801 84.2981 150.739 84.5446C151.416 85.0375 152.34 85.3449 152.279 86.3918C151.848 86.5766 151.601 86.6996 151.047 86.5766C150.431 84.7293 150.678 85.6528 149.939 85.0985C149.2 84.5442 150.124 83.9903 148.092 84.6055C147.784 84.2364 147.969 84.2977 147.784 83.8664C147.291 83.9282 146.553 84.4207 146.429 84.8516C146.86 85.0364 147.23 85.2824 147.414 85.2824C147.845 85.3442 148.03 85.0977 148.646 85.3442C148.338 85.8371 148.091 85.775 147.845 86.268C148.338 86.884 149.138 87.3149 149.385 88.1153C149.385 88.1153 149.385 88.177 149.446 88.2383C149.631 88.6692 149.754 88.3614 149.754 88.9156C149.754 89.3465 149.508 89.593 149.323 90.0239C148.338 91.9942 146.984 91.7481 145.075 92.4871C145.075 93.0414 145.691 93.9032 144.336 93.7184C144.213 92.8563 144.829 93.2875 144.705 92.4254C143.781 92.1793 143.289 92.4871 142.919 93.2875C143.288 94.5805 145.259 94.7035 144.766 96.736C144.15 97.1668 143.535 97.5364 142.919 97.9672C142.365 97.6594 142.981 97.9055 142.426 97.3512C141.872 96.7969 141.195 96.4274 140.579 95.9965C140.517 96.0582 140.517 96.1196 140.456 96.2426C140.271 96.6735 139.963 97.1664 140.148 97.5973C140.21 97.8434 140.702 98.6442 140.948 98.7672C141.379 99.075 141.872 99.1981 141.995 99.691C142.057 99.8758 142.303 101.231 142.303 101.292C140.456 100.738 141.01 99.8141 140.333 98.8907C140.025 98.4598 139.964 98.5828 139.594 98.1516C139.594 97.4125 139.84 96.7969 139.594 95.9965C139.471 95.5657 139.163 94.8883 139.039 94.3953C138.362 94.5184 137.808 95.2574 137.623 94.5184C137.623 94.3953 137.562 94.2723 137.562 94.1492C137.193 92.8563 136.638 93.1641 136.084 91.9324C135.16 92.1785 135.16 92.1785 134.113 92.3016L134.052 92.3633L133.805 88.2379L132.697 70.2574H132.759C132.759 70.2574 135.653 70.5653 135.838 70.5653C136.454 70.5653 136.454 70.3805 137.316 70.3805C137.378 70.3805 137.378 70.3805 137.439 70.3805L137.315 70.6899ZM152.832 87.3153C152.894 87.7461 153.201 88.0543 153.694 88.2391C154.187 87.6231 153.571 87.5617 155.418 87.1309C155.541 87.1309 155.664 87.0692 155.787 87.0078C157.327 86.3305 156.28 86.8231 157.45 86.4535C157.45 85.8992 157.265 85.5297 157.204 84.9141C157.204 84.2367 156.896 83.9903 156.096 83.8672C156.034 85.1602 157.143 84.7293 155.357 86.0223C154.433 86.6996 153.817 85.8992 152.893 87.2535L152.832 87.3153ZM142.61 104.618C142.733 104.249 142.795 103.756 142.979 103.448C143.657 103.448 143.041 103.879 144.087 103.817C144.272 103.509 144.272 103.324 144.211 103.017C143.718 102.955 143.595 103.017 143.287 103.263C143.164 103.201 143.102 103.078 142.979 103.017C142.486 102.771 142.548 103.386 142.117 102.648C141.624 101.909 142.179 101.909 141.132 101.416C140.516 101.109 140.27 100.923 139.716 100.493C138.792 99.7535 139.593 100.062 138.114 99.6922C138.114 100.493 138.299 100 139.1 100.985C139.407 101.416 139.777 101.909 140.085 102.34C140.578 102.956 141.071 104.68 142.61 104.618ZM144.95 103.448C146.243 103.633 147.167 104.002 147.537 103.756C147.906 103.387 147.783 103.14 148.214 102.648C148.768 101.97 148.399 102.155 149.076 101.601C148.707 100.493 148.522 100.985 149.261 99.8766C149.138 99.5075 148.83 99.1375 148.461 98.8914C148.03 99.0762 148.399 98.8914 148.091 99.1375C147.598 99.5684 147.045 100.061 146.552 100.492C146.121 100.861 146.306 100.554 145.628 100.985C145.443 101.047 145.259 101.17 145.012 101.231C144.704 101.293 144.458 101.047 144.396 101.786C144.334 102.155 144.827 102.894 144.95 103.387V103.448ZM157.512 105.788C158.189 105.973 157.943 105.727 158.436 105.788C159.544 105.973 159.175 106.897 160.591 105.542C162.5 105.542 160.591 106.589 163.3 106.835C163.3 106.342 162.438 105.665 162.069 105.419C162.254 105.05 162.254 105.234 162.377 104.803C162.192 104.741 161.946 104.618 161.761 104.495C160.652 103.51 162.13 104.249 159.79 103.387C159.482 103.264 158.436 102.894 158.251 102.894C157.327 102.771 157.389 103.387 156.65 103.51C156.157 103.017 156.465 102.217 155.603 102.279C154.495 102.341 155.603 103.695 155.603 103.695C156.034 104.064 156.157 103.633 157.389 104.372C158.62 105.111 157.635 105.234 157.45 105.788H157.512ZM155.911 108.682C156.034 108.498 156.034 108.498 156.095 108.436C156.341 108.19 156.157 108.436 156.403 108.129C156.649 107.821 156.649 107.759 156.649 107.389C155.91 107.389 155.602 107.574 155.048 107.082C154.617 107.205 154.925 107.205 154.432 107.389C154.001 107.574 154.124 107.389 153.693 107.636C153.2 107.943 153.324 108.252 152.708 108.559C152.154 108.375 151.969 107.882 151.107 108.436C150.552 108.805 150.922 108.621 150.552 108.991C150.059 109.422 150.121 109.175 149.69 109.422C148.582 109.976 150.306 110.284 146.488 111.146C146.18 111.207 145.072 111.762 144.887 111.946C144.456 112.377 144.456 113.054 144.271 113.486C143.963 114.286 144.271 114.225 144.148 115.456C144.025 116.995 143.717 116.38 143.409 117.18C144.086 117.98 144.702 117.242 145.564 117.057C146.057 116.934 146.549 117.057 147.042 116.995C147.411 116.934 147.658 116.688 148.089 116.502C148.212 116.441 150.614 116.009 150.737 116.009C151.968 116.009 152.092 116.502 152.277 117.364C152.893 117.302 152.584 117.302 153.139 116.995C153.508 117.488 153.446 118.042 153.446 118.781C154.001 119.089 155.048 119.15 155.663 119.212C156.279 119.212 156.032 119.027 156.71 118.904C158.434 118.473 156.956 119.15 159.481 117.057C160.159 116.502 160.528 116.379 161.082 115.641C161.637 114.963 162.622 113.732 162.068 112.808C161.76 112.254 161.452 111.638 161.205 111.022C160.651 110.16 160.528 111.391 160.405 108.99C160.343 108.128 160.59 108.621 159.912 108.19C159.912 107.513 159.912 107.328 159.727 106.897C159.173 107.082 159.543 106.774 159.173 107.328C158.496 108.313 158.557 110.591 157.018 109.483C156.649 109.175 156.156 108.929 155.971 108.621L155.911 108.682Z" fill="#0E0637"/>
  </g>
  <defs>
    <clipPath id="clip0_279_3735">
      <rect width="200" height="200" fill="white"/>
    </clipPath>
  </defs>
</svg>