<svg xmlns="http://www.w3.org/2000/svg" width="200" height="200" viewBox="0 0 200 200" fill="none">
  <g clip-path="url(#clip0_572_4241)">
    <path d="M99.9998 200C155.228 200 200 155.228 200 99.9998C200 44.7714 155.228 0 99.9998 0C44.7714 0 0 44.7714 0 99.9998C0 155.228 44.7714 200 99.9998 200Z" fill="#6BC1FF"/>
    <path d="M199.981 101.973L175.434 77.426L28.2871 119.912L108.893 199.6C159.308 195.166 198.996 153.306 199.981 101.973Z" fill="#5492CD"/>
    <path d="M28.5778 75.7907L35.5877 74.5813C35.5877 73.3497 36.5955 72.3196 37.8495 72.3196H117.381C118.097 72.3196 118.724 72.6555 119.15 73.1708H167.774C169.162 73.1708 170.305 74.313 170.305 75.7017V75.7911H171.469C174.224 75.7911 176.463 77.6279 176.463 79.8674V115.837C176.463 118.076 174.224 119.913 171.469 119.913H28.6227C25.868 119.913 23.4492 118.077 23.6285 115.837L26.6297 80.0017C26.8086 77.7623 25.868 75.7689 28.6231 75.7689L28.5778 75.7907Z" fill="#253569"/>
    <path d="M46.9443 82.9143H36.6641V116.577H46.9443V82.9143Z" fill="#C1E9FF"/>
    <path d="M45.5111 84.2549H38.0742V97.202H45.5111V84.2549Z" fill="white"/>
    <path d="M159.376 82.9143H149.096V116.577H159.376V82.9143Z" fill="#C1E9FF"/>
    <path d="M157.943 84.2549H150.506V97.202H157.943V84.2549Z" fill="white"/>
    <path d="M170.372 82.9143H160.092V116.577H170.372V82.9143Z" fill="#C1E9FF"/>
    <path d="M168.939 84.2549H161.502V97.202H168.939V84.2549Z" fill="white"/>
    <path d="M176.419 113.552V115.859C176.419 118.098 174.18 119.935 171.425 119.935H28.5782C25.8235 119.935 23.584 118.099 23.584 115.859V113.552H176.419Z" fill="#171717"/>
    <path d="M58.4787 109.184C53.3723 109.184 49.2285 113.328 49.2285 118.434C49.2285 123.54 53.3719 127.684 58.4787 127.684C63.5854 127.684 67.7288 123.541 67.7288 118.434C67.7284 113.328 63.585 109.184 58.4787 109.184Z" fill="#333333"/>
    <path d="M58.4771 112.812C55.3641 112.812 52.8555 115.343 52.8555 118.434C52.8555 121.547 55.3864 124.056 58.4771 124.056C61.59 124.056 64.0986 121.525 64.0986 118.434C64.099 115.321 61.5677 112.812 58.4771 112.812Z" fill="#E6E6E6"/>
    <path d="M58.4782 116.24C57.2688 116.24 56.2832 117.225 56.2832 118.434C56.2832 119.643 57.2688 120.629 58.4782 120.629C59.6876 120.629 60.6731 119.643 60.6731 118.434C60.6731 117.225 59.6876 116.24 58.4782 116.24Z" fill="#B3B3B3"/>
    <path d="M50.8184 79.2625H64.794C65.2194 79.2625 65.5557 79.6207 65.5557 80.0464V91.088C65.5557 91.5134 65.2198 91.872 64.794 91.872H50.8184C50.393 91.872 50.0566 91.5138 50.0566 91.088V80.0464C50.0566 79.6207 50.3926 79.2625 50.8184 79.2625ZM131.38 79.2625H145.355C145.781 79.2625 146.117 79.6207 146.117 80.0464V91.088C146.117 91.5134 145.781 91.872 145.355 91.872H131.38C130.954 91.872 130.618 91.5138 130.618 91.088V80.0464C130.618 79.6207 130.954 79.2625 131.38 79.2625ZM111.245 79.2625H125.22C125.646 79.2625 125.982 79.6207 125.982 80.0464V91.088C125.982 91.5134 125.646 91.872 125.22 91.872H111.245C110.819 91.872 110.483 91.5138 110.483 91.088V80.0464C110.483 79.6207 110.819 79.2625 111.245 79.2625ZM91.1101 79.2625H105.086C105.511 79.2625 105.847 79.6207 105.847 80.0464V91.088C105.847 91.5134 105.512 91.872 105.086 91.872H91.1101C90.6847 91.872 90.3484 91.5138 90.3484 91.088V80.0464C90.3484 79.6207 90.6847 79.2625 91.1101 79.2625ZM70.9754 79.2625H84.951C85.3764 79.2625 85.7127 79.6207 85.7127 80.0464V91.088C85.7127 91.5134 85.3768 91.872 84.951 91.872H70.9754C70.55 91.872 70.2136 91.5138 70.2136 91.088V80.0464C70.214 79.6207 70.5496 79.2625 70.9754 79.2625Z" fill="#C1E9FF"/>
    <path d="M26.4496 81.7034L31.2872 81.614C32.2501 81.5917 33.0341 82.398 33.0341 83.3609V102.936C33.0341 103.899 32.2501 104.683 31.2872 104.683H24.5238C23.2027 104.795 24.882 80.203 26.45 81.6812L26.4496 81.7034Z" fill="white"/>
    <path d="M139.084 109.184C133.978 109.184 129.834 113.328 129.834 118.434C129.834 123.54 133.977 127.684 139.084 127.684C144.191 127.684 148.334 123.541 148.334 118.434C148.334 113.328 144.19 109.184 139.084 109.184Z" fill="#333333"/>
    <path d="M139.084 112.812C135.972 112.812 133.463 115.343 133.463 118.434C133.463 121.547 135.994 124.056 139.084 124.056C142.197 124.056 144.706 121.525 144.706 118.434C144.706 115.321 142.175 112.812 139.084 112.812Z" fill="#E6E6E6"/>
    <path d="M139.084 116.24C137.874 116.24 136.889 117.225 136.889 118.434C136.889 119.643 137.874 120.629 139.084 120.629C140.293 120.629 141.278 119.643 141.278 118.434C141.279 117.225 140.293 116.24 139.084 116.24Z" fill="#B3B3B3"/>
    <path d="M26.2266 107.706H29.7208C30.6485 107.706 31.4005 108.458 31.4005 109.386V110.595C31.4005 111.523 30.6485 112.275 29.7208 112.275H26.2266C25.2988 112.275 24.5469 111.523 24.5469 110.595V109.386C24.5469 108.458 25.2988 107.706 26.2266 107.706Z" fill="white"/>
    <path d="M25.6227 114.493H26.4739C27.1047 114.493 27.6161 115.004 27.6161 115.635V116.486C27.6161 117.117 27.1043 117.628 26.4739 117.628H25.6227C24.9918 117.628 24.4805 117.117 24.4805 116.486V115.635C24.4805 115.004 24.9918 114.493 25.6227 114.493Z" fill="#666666"/>
  </g>
  <defs>
    <clipPath id="clip0_572_4241">
      <rect width="200" height="200" fill="white"/>
    </clipPath>
  </defs>
</svg>