<svg width="20" height="20" viewBox="0 0 20 20" fill="none" xmlns="http://www.w3.org/2000/svg">
<path d="M8.33329 4.16667H11.6666C11.6666 3.72464 11.491 3.30072 11.1785 2.98816C10.8659 2.67559 10.442 2.5 9.99996 2.5C9.55793 2.5 9.13401 2.67559 8.82145 2.98816C8.50889 3.30072 8.33329 3.72464 8.33329 4.16667ZM7.08329 4.16667C7.08329 3.78364 7.15873 3.40437 7.30531 3.05051C7.45189 2.69664 7.66673 2.37511 7.93756 2.10427C8.2084 1.83343 8.52993 1.61859 8.8838 1.47202C9.23767 1.32544 9.61694 1.25 9.99996 1.25C10.383 1.25 10.7623 1.32544 11.1161 1.47202C11.47 1.61859 11.7915 1.83343 12.0624 2.10427C12.3332 2.37511 12.548 2.69664 12.6946 3.05051C12.8412 3.40437 12.9166 3.78364 12.9166 4.16667H17.7083C17.8741 4.16667 18.033 4.23251 18.1502 4.34973C18.2674 4.46694 18.3333 4.62591 18.3333 4.79167C18.3333 4.95743 18.2674 5.1164 18.1502 5.23361C18.033 5.35082 17.8741 5.41667 17.7083 5.41667H16.6083L15.6333 15.5092C15.5585 16.2825 15.1983 17.0002 14.623 17.5224C14.0477 18.0445 13.2985 18.3336 12.5216 18.3333H7.47829C6.70151 18.3334 5.95254 18.0442 5.37742 17.5221C4.80229 16.9999 4.44224 16.2823 4.36746 15.5092L3.39163 5.41667H2.29163C2.12587 5.41667 1.96689 5.35082 1.84968 5.23361C1.73247 5.1164 1.66663 4.95743 1.66663 4.79167C1.66663 4.62591 1.73247 4.46694 1.84968 4.34973C1.96689 4.23251 2.12587 4.16667 2.29163 4.16667H7.08329ZM8.74996 8.125C8.74996 7.95924 8.68411 7.80027 8.5669 7.68306C8.44969 7.56585 8.29072 7.5 8.12496 7.5C7.9592 7.5 7.80023 7.56585 7.68302 7.68306C7.56581 7.80027 7.49996 7.95924 7.49996 8.125V14.375C7.49996 14.5408 7.56581 14.6997 7.68302 14.8169C7.80023 14.9342 7.9592 15 8.12496 15C8.29072 15 8.44969 14.9342 8.5669 14.8169C8.68411 14.6997 8.74996 14.5408 8.74996 14.375V8.125ZM11.875 7.5C11.7092 7.5 11.5502 7.56585 11.433 7.68306C11.3158 7.80027 11.25 7.95924 11.25 8.125V14.375C11.25 14.5408 11.3158 14.6997 11.433 14.8169C11.5502 14.9342 11.7092 15 11.875 15C12.0407 15 12.1997 14.9342 12.3169 14.8169C12.4341 14.6997 12.5 14.5408 12.5 14.375V8.125C12.5 7.95924 12.4341 7.80027 12.3169 7.68306C12.1997 7.56585 12.0407 7.5 11.875 7.5Z" fill="#171717"/>
</svg>
