<svg width="16" height="16" viewBox="0 0 16 16" fill="none" xmlns="http://www.w3.org/2000/svg">
<path d="M9.312 14.223C9.18259 14.4584 8.99233 14.6548 8.76109 14.7915C8.52986 14.9283 8.26614 15.0004 7.9975 15.0004C7.72885 15.0004 7.46513 14.9283 7.2339 14.7915C7.00267 14.6548 6.81241 14.4584 6.683 14.223L1.183 4.22298C1.05756 3.99455 0.993802 3.73739 0.997997 3.47683C1.00219 3.21626 1.0742 2.96129 1.20692 2.73702C1.33965 2.51275 1.52851 2.32693 1.7549 2.19787C1.98129 2.0688 2.2374 2.00094 2.498 2.00098H13.497C13.7577 2.00102 14.0138 2.06899 14.2402 2.19818C14.4666 2.32737 14.6554 2.51332 14.788 2.73771C14.9207 2.96209 14.9925 3.21717 14.9966 3.4778C15.0006 3.73842 14.9366 3.9956 14.811 4.22398L9.312 14.223Z" fill="black"/>
</svg>
