<svg width="20" height="20" viewBox="0 0 20 20" fill="none" xmlns="http://www.w3.org/2000/svg">
<path d="M12.92 2.87337C13.4801 2.32618 14.2334 2.02186 15.0164 2.02642C15.7994 2.03098 16.549 2.34405 17.1027 2.89772C17.6564 3.4514 17.9694 4.20104 17.974 4.98404C17.9785 5.76705 17.6742 6.52028 17.127 7.08037L16.458 7.74937L12.251 3.54237L12.92 2.87337ZM11.544 4.25037L3.54503 12.2494C3.2178 12.5771 2.99062 12.9913 2.89003 13.4434L2.01203 17.3934C1.99367 17.4756 1.99636 17.561 2.01986 17.6419C2.04336 17.7228 2.0869 17.7964 2.14645 17.856C2.20599 17.9155 2.27962 17.959 2.36049 17.9825C2.44135 18.006 2.52685 18.0087 2.60903 17.9904L6.53503 17.1174C7.00283 17.0143 7.43115 16.7789 7.76903 16.4394L15.751 8.45737L11.544 4.25037Z" fill="#171717"/>
</svg>
