<svg width="16" height="16" viewBox="0 0 16 16" fill="none" xmlns="http://www.w3.org/2000/svg">
<path d="M2.34 9.42143C1.22 8.80343 1.22 7.19293 2.341 6.57493L12.09 1.20393C13.173 0.607432 14.5 1.39093 14.5 2.62743V13.3734C14.5 14.6099 13.173 15.3934 12.09 14.7964L2.34 9.42143ZM2.8235 7.45143C2.72563 7.50542 2.64403 7.58467 2.5872 7.68092C2.53037 7.77718 2.5004 7.88691 2.5004 7.99868C2.5004 8.11046 2.53037 8.22019 2.5872 8.31644C2.64403 8.41269 2.72563 8.49194 2.8235 8.54593L12.5725 13.9209C12.6677 13.9735 12.7749 14.0003 12.8836 13.9987C12.9923 13.9971 13.0987 13.9672 13.1923 13.9119C13.2859 13.8566 13.3635 13.7779 13.4174 13.6834C13.4712 13.589 13.4996 13.4821 13.4995 13.3734V2.62743C13.4996 2.51872 13.4712 2.41187 13.4174 2.31744C13.3635 2.22301 13.2859 2.14426 13.1923 2.08898C13.0987 2.03369 12.9923 2.00378 12.8836 2.00219C12.7749 2.00061 12.6677 2.0274 12.5725 2.07993L2.8235 7.45143Z" fill="#D1D5DC"/>
</svg>
