<svg width="16" height="16" viewBox="0 0 16 16" fill="none" xmlns="http://www.w3.org/2000/svg">
<path d="M14.222 6.6867C14.4574 6.8161 14.6538 7.00637 14.7905 7.2376C14.9273 7.46883 14.9994 7.73255 14.9994 8.0012C14.9994 8.26984 14.9273 8.53356 14.7905 8.76479C14.6538 8.99603 14.4574 9.18629 14.222 9.3157L4.222 14.8147C3.99358 14.9401 3.73641 15.0039 3.47585 14.9997C3.21529 14.9955 2.96031 14.9235 2.73604 14.7908C2.51178 14.658 2.32596 14.4692 2.19689 14.2428C2.06783 14.0164 1.99997 13.7603 2 13.4997V2.5017C2.00004 2.24104 2.06801 1.98489 2.1972 1.75851C2.32639 1.53212 2.51234 1.3433 2.73673 1.21067C2.96112 1.07803 3.21619 1.00616 3.47682 1.00213C3.73744 0.998104 3.99462 1.06206 4.223 1.1877L14.222 6.6867ZM13.74 8.4387C13.8184 8.39553 13.8838 8.33212 13.9293 8.25508C13.9748 8.17804 13.9988 8.09019 13.9988 8.0007C13.9988 7.91121 13.9748 7.82336 13.9293 7.74631C13.8838 7.66927 13.8184 7.60586 13.74 7.5627L3.74 2.0637C3.6639 2.02206 3.57828 2.00094 3.49155 2.0024C3.40482 2.00387 3.31997 2.02787 3.24532 2.07205C3.17067 2.11624 3.10881 2.17908 3.0658 2.25441C3.02278 2.32973 3.00011 2.41495 3 2.5017V13.5007C3.00001 13.5876 3.02267 13.673 3.06573 13.7484C3.1088 13.8239 3.17078 13.8868 3.24558 13.931C3.32037 13.9753 3.4054 13.9992 3.49227 14.0006C3.57915 14.0019 3.66487 13.9806 3.741 13.9387L13.74 8.4387Z" fill="#D1D5DC"/>
</svg>
