<svg width="16" height="16" viewBox="0 0 16 16" fill="none" xmlns="http://www.w3.org/2000/svg">
<path d="M6.57695 2.34154C7.19495 1.22054 8.80595 1.22104 9.42345 2.34154L14.7945 12.0915C15.3915 13.1735 14.608 14.5 13.3715 14.5H2.62495C1.38795 14.5 0.604952 13.1735 1.20195 12.0905L6.57695 2.34154ZM8.54745 2.82454C8.4935 2.72655 8.41424 2.64483 8.31793 2.58792C8.22163 2.53101 8.11181 2.50098 7.99995 2.50098C7.88809 2.50098 7.77828 2.53101 7.68197 2.58792C7.58567 2.64483 7.5064 2.72655 7.45245 2.82454L2.07845 12.573C2.02594 12.6682 1.99915 12.7754 2.00071 12.884C2.00227 12.9927 2.03214 13.0991 2.08737 13.1927C2.1426 13.2863 2.22127 13.3638 2.31563 13.4177C2.40999 13.4716 2.51678 13.5 2.62545 13.5H13.3715C13.4801 13.5 13.5869 13.4717 13.6812 13.4179C13.7756 13.364 13.8543 13.2865 13.9096 13.193C13.9648 13.0995 13.9948 12.9931 13.9964 12.8845C13.9981 12.7759 13.9714 12.6687 13.919 12.5735L8.54745 2.82454Z" fill="#D1D5DC"/>
</svg>
