<svg width="211" height="71" viewBox="0 0 211 71" fill="none" xmlns="http://www.w3.org/2000/svg">
    <g clip-path="url(#clip0_71_2420)">
        <path
            d="M33.9711 2.46094C45.797 2.46094 55.4189 12.0824 55.4189 23.9087C55.4189 35.7353 45.797 45.3565 33.9711 45.3565C22.1454 45.3565 12.5233 35.7353 12.5233 23.9087C12.5233 12.0824 22.1454 2.46094 33.9711 2.46094ZM33.9711 42.9734C44.4833 42.9734 53.0358 34.421 53.0358 23.9087C53.0358 13.3967 44.4833 4.84404 33.9711 4.84404C23.4591 4.84404 14.9064 13.3966 14.9064 23.9087C14.9064 34.421 23.4591 42.9734 33.9711 42.9734Z"
            fill="#D1D5DC" />
        <path
            d="M5.43642 23.9097C5.43642 14.4549 10.0728 5.62126 17.89 0.280729C18.4346 -0.0921284 19.1593 0.0491938 19.5316 0.592731C19.9027 1.13603 19.7552 1.87723 19.2118 2.24842C12.044 7.1449 7.76152 15.2426 7.76152 23.9097C7.76152 38.3641 19.5193 50.1237 33.9737 50.1237C38.4234 50.1237 42.8184 48.9886 46.6839 46.8413C47.2587 46.5223 47.9846 46.7301 48.3034 47.3037C48.6233 47.8791 48.4776 48.6046 47.9016 48.9241C44.0291 51.0762 39.7549 52.2933 35.2867 52.4789V58.5445H42.3126C42.9712 58.5445 43.5041 59.0781 43.5041 59.7361C43.5041 60.3941 42.9712 60.9277 42.3126 60.9277H25.588C24.9294 60.9277 24.3964 60.3941 24.3964 59.7361C24.3964 59.0781 24.9294 58.5445 25.588 58.5445H32.9037V52.4802C17.7114 51.8531 5.43642 39.2792 5.43642 23.9097Z"
            fill="#D1D5DC" />
    </g>
    <path
        d="M118.058 35.6973C118.058 36.0254 118 36.3301 117.883 36.6113C117.765 36.8926 117.601 37.1387 117.39 37.3496C117.191 37.5488 116.951 37.707 116.67 37.8242C116.4 37.9414 116.107 38 115.791 38H105.455C104.892 38 104.289 37.9355 103.644 37.8066C103.011 37.6777 102.384 37.4727 101.763 37.1914C101.142 36.8984 100.539 36.5352 99.9528 36.1016C99.3786 35.6562 98.8747 35.123 98.4411 34.502C98.0075 33.8691 97.6559 33.1426 97.3864 32.3223C97.1286 31.502 96.9997 30.5762 96.9997 29.5449V18.998H101.57V29.5449C101.57 30.1426 101.67 30.6816 101.869 31.1621C102.08 31.6309 102.361 32.0352 102.713 32.375C103.064 32.7148 103.474 32.9785 103.943 33.166C104.424 33.3418 104.939 33.4297 105.49 33.4297H113.488V18.998H118.058V35.6973ZM142.576 23.5684H132.293C131.672 23.5684 131.203 23.7266 130.887 24.043C130.57 24.3477 130.412 24.7988 130.412 25.3965V38H125.842V25.3965C125.842 24.6113 125.941 23.9082 126.141 23.2871C126.34 22.666 126.604 22.1211 126.932 21.6523C127.272 21.1719 127.658 20.7676 128.092 20.4395C128.525 20.0996 128.977 19.8242 129.445 19.6133C129.926 19.4023 130.406 19.25 130.887 19.1562C131.379 19.0508 131.836 18.998 132.258 18.998H142.576V23.5684ZM169.573 25.291C169.573 25.9238 169.461 26.6094 169.239 27.3477C169.016 28.0742 168.653 28.7539 168.149 29.3867C167.657 30.0078 167.006 30.5293 166.198 30.9512C165.401 31.373 164.428 31.584 163.28 31.584H155.036V27.2422H163.28C163.901 27.2422 164.381 27.0547 164.721 26.6797C165.061 26.293 165.231 25.8184 165.231 25.2559C165.231 24.6582 165.038 24.1895 164.651 23.8496C164.276 23.5098 163.819 23.3398 163.28 23.3398H155.036C154.415 23.3398 153.934 23.5332 153.594 23.9199C153.254 24.2949 153.084 24.7637 153.084 25.3262V31.707C153.084 32.3164 153.272 32.791 153.647 33.1309C154.034 33.4707 154.508 33.6406 155.071 33.6406H163.28V38H155.036C154.403 38 153.717 37.8887 152.979 37.666C152.252 37.4434 151.573 37.0859 150.94 36.5938C150.319 36.0898 149.797 35.4395 149.375 34.6426C148.954 33.834 148.743 32.8555 148.743 31.707V25.291C148.743 24.6582 148.854 23.9785 149.077 23.252C149.299 22.5137 149.657 21.834 150.149 21.2129C150.653 20.5801 151.303 20.0527 152.1 19.6309C152.909 19.209 153.887 18.998 155.036 18.998H163.28C163.913 18.998 164.592 19.1094 165.319 19.332C166.057 19.5547 166.737 19.918 167.358 20.4219C167.991 20.9141 168.518 21.5645 168.94 22.373C169.362 23.1699 169.573 24.1426 169.573 25.291Z"
        fill="#D1D5DC" />
    <path
        d="M81.0526 35.6973C81.0526 36.0254 80.9941 36.3301 80.8769 36.6113C80.7597 36.8926 80.5956 37.1387 80.3847 37.3496C80.1855 37.5488 79.9452 37.707 79.664 37.8242C79.3944 37.9414 79.1015 38 78.7851 38H68.4491C67.8866 38 67.2831 37.9355 66.6386 37.8066C66.0058 37.6777 65.3788 37.4727 64.7577 37.1914C64.1366 36.8984 63.5331 36.5352 62.9472 36.1016C62.373 35.6562 61.8691 35.123 61.4355 34.502C61.0019 33.8691 60.6503 33.1426 60.3808 32.3223C60.123 31.502 59.9941 30.5762 59.9941 29.5449V18.998H64.5644V29.5449C64.5644 30.1426 64.664 30.6816 64.8632 31.1621C65.0741 31.6309 65.3554 32.0352 65.7069 32.375C66.0585 32.7148 66.4687 32.9785 66.9374 33.166C67.4179 33.3418 67.9335 33.4297 68.4843 33.4297H76.4823V18.998H81.0526V35.6973Z"
        fill="#D1D5DC" />
    <path
        d="M113.885 46.5684H103.602C102.981 46.5684 102.512 46.7266 102.196 47.043C101.879 47.3477 101.721 47.7988 101.721 48.3965V61H97.1506V48.3965C97.1506 47.6113 97.2502 46.9082 97.4494 46.2871C97.6487 45.666 97.9123 45.1211 98.2404 44.6523C98.5803 44.1719 98.967 43.7676 99.4006 43.4395C99.8342 43.0996 100.285 42.8242 100.754 42.6133C101.235 42.4023 101.715 42.25 102.196 42.1562C102.688 42.0508 103.145 41.998 103.567 41.998H113.885V46.5684ZM138.649 54.707C138.649 55.3398 138.538 56.0254 138.315 56.7637C138.092 57.4902 137.729 58.1699 137.225 58.8027C136.733 59.4238 136.083 59.9453 135.274 60.3672C134.477 60.7891 133.505 61 132.356 61H124.112C123.479 61 122.794 60.8887 122.055 60.666C121.329 60.4434 120.649 60.0859 120.016 59.5938C119.395 59.0898 118.874 58.4395 118.452 57.6426C118.03 56.834 117.819 55.8555 117.819 54.707C117.819 54.0742 117.93 53.3887 118.153 52.6504C118.376 51.9121 118.733 51.2324 119.225 50.6113C119.729 49.9785 120.38 49.4512 121.176 49.0293C121.985 48.6074 122.963 48.3965 124.112 48.3965H132.356V52.7559H124.112C123.491 52.7559 123.01 52.9492 122.671 53.3359C122.331 53.7109 122.161 54.1797 122.161 54.7422C122.161 55.3398 122.354 55.8086 122.741 56.1484C123.139 56.4766 123.608 56.6406 124.147 56.6406H132.356C132.977 56.6406 133.458 56.4531 133.797 56.0781C134.137 55.7031 134.307 55.2344 134.307 54.6719V48.291C134.307 47.6934 134.12 47.2188 133.745 46.8672C133.381 46.5156 132.919 46.3398 132.356 46.3398H122.319V41.998H132.356C132.989 41.998 133.669 42.1094 134.395 42.332C135.133 42.5547 135.813 42.918 136.434 43.4219C137.067 43.9141 137.594 44.5645 138.016 45.373C138.438 46.1699 138.649 47.1426 138.649 48.291V54.707ZM168.827 41.998C168.312 43.6035 167.708 45.1855 167.017 46.7441C166.325 48.3027 165.528 49.791 164.626 51.209C163.735 52.6152 162.733 53.9219 161.62 55.1289C160.519 56.3242 159.294 57.3613 157.946 58.2402C156.61 59.1074 155.151 59.793 153.569 60.2969C151.999 60.7891 150.294 61.0352 148.454 61.0352C148.138 61.0352 147.839 60.9766 147.558 60.8594C147.276 60.7422 147.03 60.584 146.819 60.3848C146.608 60.1738 146.444 59.9336 146.327 59.6641C146.21 59.3828 146.151 59.084 146.151 58.7676V41.998H150.722V56.2891C151.835 56.2891 152.901 56.0488 153.921 55.5684C154.952 55.0879 155.925 54.4551 156.839 53.6699C157.753 52.873 158.597 51.9707 159.37 50.9629C160.155 49.9551 160.853 48.9238 161.462 47.8691C162.071 46.8027 162.587 45.7598 163.009 44.7402C163.442 43.7207 163.765 42.8066 163.976 41.998H168.827ZM194.523 48.291C194.523 48.9238 194.412 49.6094 194.189 50.3477C193.966 51.0742 193.603 51.7539 193.099 52.3867C192.607 53.0078 191.956 53.5293 191.148 53.9512C190.351 54.373 189.378 54.584 188.23 54.584H179.986V50.2422H188.23C188.851 50.2422 189.331 50.0547 189.671 49.6797C190.011 49.293 190.181 48.8184 190.181 48.2559C190.181 47.6582 189.988 47.1895 189.601 46.8496C189.226 46.5098 188.769 46.3398 188.23 46.3398H179.986C179.365 46.3398 178.884 46.5332 178.544 46.9199C178.205 47.2949 178.035 47.7637 178.035 48.3262V54.707C178.035 55.3164 178.222 55.791 178.597 56.1309C178.984 56.4707 179.458 56.6406 180.021 56.6406H188.23V61H179.986C179.353 61 178.667 60.8887 177.929 60.666C177.203 60.4434 176.523 60.0859 175.89 59.5938C175.269 59.0898 174.747 58.4395 174.326 57.6426C173.904 56.834 173.693 55.8555 173.693 54.707V48.291C173.693 47.6582 173.804 46.9785 174.027 46.252C174.249 45.5137 174.607 44.834 175.099 44.2129C175.603 43.5801 176.253 43.0527 177.05 42.6309C177.859 42.209 178.837 41.998 179.986 41.998H188.23C188.863 41.998 189.542 42.1094 190.269 42.332C191.007 42.5547 191.687 42.918 192.308 43.4219C192.941 43.9141 193.468 44.5645 193.89 45.373C194.312 46.1699 194.523 47.1426 194.523 48.291ZM209.549 61H207.51C206.853 61 206.15 60.8887 205.4 60.666C204.662 60.4434 203.971 60.0801 203.326 59.5762C202.681 59.0605 202.148 58.3984 201.726 57.5898C201.305 56.7695 201.094 55.7676 201.094 54.584V33.9648H205.664V54.584C205.664 55.1465 205.84 55.5977 206.191 55.9375C206.543 56.2656 206.982 56.4297 207.51 56.4297H209.549V61Z"
        fill="#D1D5DC" />
    <path
        d="M28 11C26.8954 11 26 11.8954 26 13C26 14.1046 26.8954 15 28 15V13V11ZM28 13V15L43.9242 15V13V11L28 11V13Z"
        fill="#D1D5DC" />
    <line x1="32" y1="22" x2="41" y2="22" stroke="#D1D5DC" stroke-width="4" />
    <path
        d="M30 13C30 11.8954 29.1046 11 28 11C26.8954 11 26 11.8954 26 13H28H30ZM28 13H26V38H28H30V13H28Z"
        fill="#D1D5DC" />
    <line x1="89.0874" y1="11" x2="89.0874" y2="61" stroke="#D1D5DC" stroke-width="5" />
    <path d="M101.433 15.3633H91.3608V36H86.7905V15.3633H76.7007V10.793H101.433V15.3633Z"
        fill="#D1D5DC" />
    <defs>
        <clipPath id="clip0_71_2420">
            <rect width="60.8553" height="60.8553" fill="white"
                transform="matrix(-1 0 0 1 60.8555 0.0722656)" />
        </clipPath>
    </defs>
</svg>