<svg width="211" height="71" viewBox="0 0 211 71" fill="none" xmlns="http://www.w3.org/2000/svg">
<g clip-path="url(#clip0_55_9)">
<path d="M33.9714 2.46204C45.7973 2.46204 55.4192 12.0835 55.4192 23.9098C55.4192 35.7364 45.7973 45.3576 33.9714 45.3576C22.1456 45.3576 12.5236 35.7364 12.5236 23.9098C12.5236 12.0835 22.1456 2.46204 33.9714 2.46204ZM33.9714 42.9745C44.4835 42.9745 53.0361 34.4221 53.0361 23.9098C53.0361 13.3978 44.4835 4.84514 33.9714 4.84514C23.4594 4.84514 14.9067 13.3977 14.9067 23.9098C14.9067 34.4221 23.4594 42.9745 33.9714 42.9745Z" fill="#d1d5dc"/>
<path d="M5.43606 23.9098C5.43606 14.455 10.0725 5.62138 17.8896 0.280851C18.4342 -0.0920063 19.1589 0.0493159 19.5312 0.592853C19.9024 1.13615 19.7549 1.87735 19.2115 2.24854C12.0436 7.14502 7.76116 15.2427 7.76116 23.9098C7.76116 38.3643 19.5189 50.1238 33.9734 50.1238C38.4231 50.1238 42.8181 48.9887 46.6836 46.8414C47.2584 46.5224 47.9842 46.7302 48.303 47.3038C48.623 47.8792 48.4773 48.6047 47.9013 48.9242C44.0288 51.0764 39.7545 52.2935 35.2863 52.479V58.5447H42.3122C42.9708 58.5447 43.5038 59.0782 43.5038 59.7362C43.5038 60.3942 42.9708 60.9278 42.3122 60.9278H25.5876C24.929 60.9278 24.396 60.3942 24.396 59.7362C24.396 59.0782 24.929 58.5447 25.5876 58.5447H32.9033V52.4803C17.711 51.8532 5.43606 39.2793 5.43606 23.9098Z" fill="#d1d5dc"/>
</g>
<path d="M118.058 35.6973C118.058 36.0254 117.999 36.3301 117.882 36.6113C117.765 36.8926 117.601 37.1387 117.39 37.3496C117.191 37.5488 116.95 37.707 116.669 37.8242C116.4 37.9414 116.107 38 115.79 38H105.454C104.892 38 104.288 37.9355 103.644 37.8066C103.011 37.6777 102.384 37.4727 101.763 37.1914C101.142 36.8984 100.538 36.5352 99.9523 36.1016C99.3781 35.6562 98.8742 35.123 98.4406 34.502C98.007 33.8691 97.6555 33.1426 97.3859 32.3223C97.1281 31.502 96.9992 30.5762 96.9992 29.5449V18.998H101.57V29.5449C101.57 30.1426 101.669 30.6816 101.868 31.1621C102.079 31.6309 102.361 32.0352 102.712 32.375C103.064 32.7148 103.474 32.9785 103.943 33.166C104.423 33.3418 104.939 33.4297 105.489 33.4297H113.487V18.998H118.058V35.6973ZM142.576 23.5684H132.293C131.671 23.5684 131.203 23.7266 130.886 24.043C130.57 24.3477 130.412 24.7988 130.412 25.3965V38H125.841V25.3965C125.841 24.6113 125.941 23.9082 126.14 23.2871C126.339 22.666 126.603 22.1211 126.931 21.6523C127.271 21.1719 127.658 20.7676 128.091 20.4395C128.525 20.0996 128.976 19.8242 129.445 19.6133C129.925 19.4023 130.406 19.25 130.886 19.1562C131.378 19.0508 131.836 18.998 132.257 18.998H142.576V23.5684ZM169.572 25.291C169.572 25.9238 169.461 26.6094 169.238 27.3477C169.016 28.0742 168.652 28.7539 168.148 29.3867C167.656 30.0078 167.006 30.5293 166.197 30.9512C165.4 31.373 164.428 31.584 163.279 31.584H155.035V27.2422H163.279C163.9 27.2422 164.381 27.0547 164.721 26.6797C165.061 26.293 165.23 25.8184 165.23 25.2559C165.23 24.6582 165.037 24.1895 164.65 23.8496C164.275 23.5098 163.818 23.3398 163.279 23.3398H155.035C154.414 23.3398 153.934 23.5332 153.594 23.9199C153.254 24.2949 153.084 24.7637 153.084 25.3262V31.707C153.084 32.3164 153.271 32.791 153.646 33.1309C154.033 33.4707 154.508 33.6406 155.07 33.6406H163.279V38H155.035C154.402 38 153.717 37.8887 152.979 37.666C152.252 37.4434 151.572 37.0859 150.939 36.5938C150.318 36.0898 149.797 35.4395 149.375 34.6426C148.953 33.834 148.742 32.8555 148.742 31.707V25.291C148.742 24.6582 148.854 23.9785 149.076 23.252C149.299 22.5137 149.656 21.834 150.148 21.2129C150.652 20.5801 151.303 20.0527 152.1 19.6309C152.908 19.209 153.887 18.998 155.035 18.998H163.279C163.912 18.998 164.592 19.1094 165.318 19.332C166.057 19.5547 166.736 19.918 167.357 20.4219C167.99 20.9141 168.518 21.5645 168.939 22.373C169.361 23.1699 169.572 24.1426 169.572 25.291Z" fill="#f3f4f6"/>
<path d="M81.0522 35.6973C81.0522 36.0254 80.9936 36.3301 80.8764 36.6113C80.7592 36.8926 80.5951 37.1387 80.3842 37.3496C80.185 37.5488 79.9447 37.707 79.6635 37.8242C79.394 37.9414 79.101 38 78.7846 38H68.4486C67.8861 38 67.2826 37.9355 66.6381 37.8066C66.0053 37.6777 65.3783 37.4727 64.7572 37.1914C64.1361 36.8984 63.5326 36.5352 62.9467 36.1016C62.3725 35.6562 61.8686 35.123 61.435 34.502C61.0014 33.8691 60.6498 33.1426 60.3803 32.3223C60.1225 31.502 59.9936 30.5762 59.9936 29.5449V18.998H64.5639V29.5449C64.5639 30.1426 64.6635 30.6816 64.8627 31.1621C65.0736 31.6309 65.3549 32.0352 65.7065 32.375C66.058 32.7148 66.4682 32.9785 66.9369 33.166C67.4174 33.3418 67.933 33.4297 68.4838 33.4297H76.4818V18.998H81.0522V35.6973Z" fill="#d1d5dc"/>
<path d="M113.884 46.5684H103.601C102.98 46.5684 102.511 46.7266 102.195 47.043C101.879 47.3477 101.72 47.7988 101.72 48.3965V61H97.1501V48.3965C97.1501 47.6113 97.2497 46.9082 97.4489 46.2871C97.6482 45.666 97.9118 45.1211 98.24 44.6523C98.5798 44.1719 98.9665 43.7676 99.4001 43.4395C99.8337 43.0996 100.285 42.8242 100.754 42.6133C101.234 42.4023 101.715 42.25 102.195 42.1562C102.687 42.0508 103.144 41.998 103.566 41.998H113.884V46.5684ZM138.649 54.707C138.649 55.3398 138.537 56.0254 138.315 56.7637C138.092 57.4902 137.729 58.1699 137.225 58.8027C136.733 59.4238 136.082 59.9453 135.274 60.3672C134.477 60.7891 133.504 61 132.356 61H124.111C123.479 61 122.793 60.8887 122.055 60.666C121.328 60.4434 120.649 60.0859 120.016 59.5938C119.395 59.0898 118.873 58.4395 118.451 57.6426C118.029 56.834 117.818 55.8555 117.818 54.707C117.818 54.0742 117.93 53.3887 118.152 52.6504C118.375 51.9121 118.733 51.2324 119.225 50.6113C119.729 49.9785 120.379 49.4512 121.176 49.0293C121.984 48.6074 122.963 48.3965 124.111 48.3965H132.356V52.7559H124.111C123.49 52.7559 123.01 52.9492 122.67 53.3359C122.33 53.7109 122.16 54.1797 122.16 54.7422C122.16 55.3398 122.354 55.8086 122.74 56.1484C123.139 56.4766 123.608 56.6406 124.147 56.6406H132.356C132.977 56.6406 133.457 56.4531 133.797 56.0781C134.137 55.7031 134.307 55.2344 134.307 54.6719V48.291C134.307 47.6934 134.119 47.2188 133.744 46.8672C133.381 46.5156 132.918 46.3398 132.356 46.3398H122.318V41.998H132.356C132.988 41.998 133.668 42.1094 134.395 42.332C135.133 42.5547 135.813 42.918 136.434 43.4219C137.067 43.9141 137.594 44.5645 138.016 45.373C138.438 46.1699 138.649 47.1426 138.649 48.291V54.707ZM168.827 41.998C168.311 43.6035 167.708 45.1855 167.016 46.7441C166.325 48.3027 165.528 49.791 164.626 51.209C163.735 52.6152 162.733 53.9219 161.62 55.1289C160.518 56.3242 159.293 57.3613 157.946 58.2402C156.61 59.1074 155.151 59.793 153.569 60.2969C151.999 60.7891 150.293 61.0352 148.454 61.0352C148.137 61.0352 147.838 60.9766 147.557 60.8594C147.276 60.7422 147.03 60.584 146.819 60.3848C146.608 60.1738 146.444 59.9336 146.327 59.6641C146.209 59.3828 146.151 59.084 146.151 58.7676V41.998H150.721V56.2891C151.834 56.2891 152.901 56.0488 153.92 55.5684C154.952 55.0879 155.924 54.4551 156.838 53.6699C157.752 52.873 158.596 51.9707 159.37 50.9629C160.155 49.9551 160.852 48.9238 161.461 47.8691C162.071 46.8027 162.586 45.7598 163.008 44.7402C163.442 43.7207 163.764 42.8066 163.975 41.998H168.827ZM194.522 48.291C194.522 48.9238 194.411 49.6094 194.188 50.3477C193.966 51.0742 193.602 51.7539 193.099 52.3867C192.606 53.0078 191.956 53.5293 191.147 53.9512C190.351 54.373 189.378 54.584 188.229 54.584H179.985V50.2422H188.229C188.851 50.2422 189.331 50.0547 189.671 49.6797C190.011 49.293 190.181 48.8184 190.181 48.2559C190.181 47.6582 189.987 47.1895 189.601 46.8496C189.226 46.5098 188.768 46.3398 188.229 46.3398H179.985C179.364 46.3398 178.884 46.5332 178.544 46.9199C178.204 47.2949 178.034 47.7637 178.034 48.3262V54.707C178.034 55.3164 178.222 55.791 178.597 56.1309C178.983 56.4707 179.458 56.6406 180.02 56.6406H188.229V61H179.985C179.352 61 178.667 60.8887 177.929 60.666C177.202 60.4434 176.522 60.0859 175.89 59.5938C175.268 59.0898 174.747 58.4395 174.325 57.6426C173.903 56.834 173.692 55.8555 173.692 54.707V48.291C173.692 47.6582 173.804 46.9785 174.026 46.252C174.249 45.5137 174.606 44.834 175.099 44.2129C175.602 43.5801 176.253 43.0527 177.05 42.6309C177.858 42.209 178.837 41.998 179.985 41.998H188.229C188.862 41.998 189.542 42.1094 190.268 42.332C191.007 42.5547 191.686 42.918 192.308 43.4219C192.94 43.9141 193.468 44.5645 193.89 45.373C194.311 46.1699 194.522 47.1426 194.522 48.291ZM209.548 61H207.509C206.853 61 206.15 60.8887 205.4 60.666C204.661 60.4434 203.97 60.0801 203.326 59.5762C202.681 59.0605 202.148 58.3984 201.726 57.5898C201.304 56.7695 201.093 55.7676 201.093 54.584V33.9648H205.663V54.584C205.663 55.1465 205.839 55.5977 206.191 55.9375C206.542 56.2656 206.982 56.4297 207.509 56.4297H209.548V61Z" fill="#d1d5dc"/>
<path d="M28 11C26.8954 11 26 11.8954 26 13C26 14.1046 26.8954 15 28 15V13V11ZM28 13V15L43.9242 15V13V11L28 11V13Z" fill="#d1d5dc"/>
<line x1="32" y1="22" x2="41" y2="22" stroke="#f3f4f6" stroke-width="4" />
<path d="M30 13C30 11.8954 29.1046 11 28 11C26.8954 11 26 11.8954 26 13H28H30ZM28 13H26V38H28H30V13H28Z" fill="#d1d5dc"/>
<line x1="89.0876" y1="11" x2="89.0876" y2="61" stroke="#f3f4f6" stroke-width="5" />
<path d="M101.433 15.3633H91.3609V36H86.7906V15.3633H76.7008V10.793H101.433V15.3633Z" fill="#d1d5dc" />
<defs>
<clipPath id="clip0_55_9">
<rect width="60.8553" height="60.8553" fill="#d1d5dc" transform="matrix(-1 0 0 1 60.8552 0.0723877)" />
</clipPath>
</defs>
</svg>
