<svg xmlns="http://www.w3.org/2000/svg" width="200" height="200" viewBox="0 0 200 200" fill="none">
  <g clip-path="url(#clip0_174_2502)">
    <path d="M100 200C155.228 200 200 155.228 200 100C200 44.7715 155.228 0 100 0C44.7715 0 0 44.7715 0 100C0 155.228 44.7715 200 100 200Z" fill="#3D649B"/>
    <path d="M120.964 197.792C163.047 188.813 195.324 153.366 199.529 109.706L154.052 63.5664L136.371 109.02L139.162 111.81L137.573 112.02L130.428 104.875L41.7827 116.247L48.6655 122.718L46.1659 123.968L120.964 197.792Z" fill="#253569"/>
    <path d="M51.1677 114.68H46.1685V123.965H51.1677V114.68Z" fill="white"/>
    <path d="M153.835 114.68H148.835V123.965H153.835V114.68Z" fill="white"/>
    <path d="M152.464 97.5422H47.5346C46.3346 97.5422 45.3623 96.5699 45.3623 95.3699V65.0453C45.3623 63.8453 46.3346 62.873 47.5346 62.873H152.465C153.665 62.873 154.637 63.8453 154.637 65.0453V95.3699C154.637 96.5691 153.665 97.5422 152.464 97.5422Z" fill="#FFC61B"/>
    <path d="M152.464 62.8727H100V97.5414H152.464C153.664 97.5414 154.637 96.5691 154.637 95.3691V65.0453C154.637 63.8457 153.665 62.8727 152.464 62.8727Z" fill="#EAA22F"/>
    <path d="M144.568 99.5988H104.712C103.884 99.5988 103.213 98.9281 103.213 98.1004V84.8418C103.213 84.0141 103.884 83.3434 104.712 83.3434H144.568C145.396 83.3434 146.067 84.0141 146.067 84.8418V98.1004C146.067 98.9281 145.396 99.5988 144.568 99.5988Z" fill="#FFEDB5"/>
    <path d="M95.2874 99.5988H55.4315C54.6038 99.5988 53.9331 98.9281 53.9331 98.1004V84.8418C53.9331 84.0141 54.6038 83.3434 55.4315 83.3434H95.2882C96.1159 83.3434 96.7866 84.0141 96.7866 84.8418V98.1004C96.7858 98.9281 96.1151 99.5988 95.2874 99.5988Z" fill="#FFEDB5"/>
    <path d="M156.75 116.825H43.2499C42.0499 116.825 41.0776 115.853 41.0776 114.653V95.4289C41.0776 94.2289 42.0499 93.2567 43.2499 93.2567H156.75C157.95 93.2567 158.922 94.2289 158.922 95.4289V114.653C158.923 115.853 157.95 116.825 156.75 116.825Z" fill="#E09112"/>
    <path d="M156.75 93.2567H100V116.826H156.75C157.95 116.826 158.922 115.854 158.922 114.654V95.4293C158.923 94.2289 157.95 93.2567 156.75 93.2567Z" fill="#FF5419"/>
  </g>
  <defs>
    <clipPath id="clip0_174_2502">
      <rect width="200" height="200" fill="white"/>
    </clipPath>
  </defs>
</svg>