<svg xmlns="http://www.w3.org/2000/svg" width="200" height="200" viewBox="0 0 200 200" fill="none">
  <g clip-path="url(#clip0_174_2485)">
    <path d="M100 200C155.228 200 200 155.228 200 100C200 44.7715 155.228 0 100 0C44.7715 0 0 44.7715 0 100C0 155.228 44.7715 200 100 200Z" fill="#3D649B"/>
    <path d="M108.671 199.621C157.213 195.451 195.846 156.609 199.684 107.973L167.424 78.2473L125.902 111.114L89.8491 78.4996L79.2726 87.5348L80.2179 88.4801L46.5339 115.015L28.396 117.599L35.0476 124.062L32.5749 124.916L108.671 199.621Z" fill="#253569"/>
    <path d="M37.2859 116.162H32.5723V124.916H37.2859V116.162Z" fill="white"/>
    <path d="M89.6429 116.162H84.9292V124.916H89.6429V116.162Z" fill="white"/>
    <path d="M88.3562 100H33.8668C32.7355 100 31.8184 99.0828 31.8184 97.9516V79.8258C31.8184 78.6945 32.7355 77.7773 33.8668 77.7773H88.3562C89.4875 77.7773 90.4047 78.6945 90.4047 79.8258V97.9516C90.4039 99.0828 89.4867 100 88.3562 100Z" fill="#FFC61B"/>
    <path d="M79.9006 101.939H42.3221C41.5424 101.939 40.9092 101.306 40.9092 100.526V88.0254C40.9092 87.2457 41.5416 86.6125 42.3221 86.6125H79.9014C80.6811 86.6125 81.3143 87.2449 81.3143 88.0254V100.526C81.3135 101.306 80.6811 101.939 79.9006 101.939Z" fill="#FFEDB5"/>
    <path d="M92.3962 118.182H29.8263C28.695 118.182 27.7778 117.264 27.7778 116.133V98.0074C27.7778 96.8762 28.695 95.959 29.8263 95.959H92.3966C93.5278 95.959 94.445 96.8762 94.445 98.0074V116.133C94.4446 117.264 93.5275 118.182 92.3962 118.182Z" fill="#E09112"/>
    <path d="M115.064 116.162H110.35V124.916H115.064V116.162Z" fill="white"/>
    <path d="M167.421 116.162H162.707V124.916H167.421V116.162Z" fill="white"/>
    <path d="M166.134 100H111.645C110.513 100 109.596 99.0828 109.596 97.9516V79.8258C109.596 78.6945 110.513 77.7773 111.645 77.7773H166.134C167.265 77.7773 168.183 78.6945 168.183 79.8258V97.9516C168.182 99.0828 167.265 100 166.134 100Z" fill="#EAA22F"/>
    <path d="M157.678 101.939H120.099C119.319 101.939 118.686 101.306 118.686 100.526V88.0254C118.686 87.2457 119.318 86.6125 120.099 86.6125H157.678C158.458 86.6125 159.091 87.2449 159.091 88.0254V100.526C159.091 101.306 158.459 101.939 157.678 101.939Z" fill="#FEE187"/>
    <path d="M170.174 118.182H107.604C106.472 118.182 105.555 117.264 105.555 116.133V98.0074C105.555 96.8762 106.472 95.959 107.604 95.959H170.174C171.305 95.959 172.222 96.8762 172.222 98.0074V116.133C172.222 117.264 171.305 118.182 170.174 118.182Z" fill="#FF5419"/>
  </g>
  <defs>
    <clipPath id="clip0_174_2485">
      <rect width="200" height="200" fill="white"/>
    </clipPath>
  </defs>
</svg>